<?xml version="1.0" ?><!DOCTYPE svg  PUBLIC '-//W3C//DTD SVG 1.1//EN'  'http://www.w3.org/Graphics/SVG/1.1/DTD/svg11.dtd'><svg id="Layer_1" style="enable-background:new 0 0 128 128;" version="1.1" viewBox="0 0 128 128" xml:space="preserve" xmlns="http://www.w3.org/2000/svg" xmlns:xlink="http://www.w3.org/1999/xlink"><g><g><g><g><path d="M91.592,105.5H36.408c-2.706,0-4.908-2.202-4.908-4.908V51.625h1v48.967c0,2.155,1.753,3.908,3.908,3.908h55.184      c2.155,0,3.908-1.753,3.908-3.908V52h1v48.592C96.5,103.298,94.298,105.5,91.592,105.5z"/></g></g></g><g><g><g><path d="M33.634,104.738l-0.668-0.659c-0.945-0.933-1.466-2.171-1.466-3.487V51.625h1v48.967c0,0.688,0.179,1.349,0.516,1.932      c0.925-5.567,4.794-30.818,1.953-47.714l0.986-0.166c3.176,18.888-2.091,48.882-2.146,49.173L33.634,104.738z"/></g></g></g><g><g><g><path d="M94.366,104.738l-0.175-0.922c-0.056-0.292-5.349-30.442-2.122-49.32l0.986,0.168      c-2.888,16.894,1.001,42.276,1.929,47.859c0.337-0.583,0.516-1.244,0.516-1.932V52h1v48.592c0,1.316-0.521,2.555-1.466,3.487      L94.366,104.738z"/></g></g></g><g><g><g><path d="M86.477,56.729H41.523c-7.181,0-13.023-5.843-13.023-13.023V28.807c0-1.696,1.381-3.077,3.077-3.077h64.846      c1.696,0,3.077,1.381,3.077,3.077v14.899C99.5,50.887,93.657,56.729,86.477,56.729z M31.577,26.729      c-1.146,0-2.077,0.932-2.077,2.077v14.899c0,6.63,5.394,12.023,12.023,12.023h44.953c6.63,0,12.023-5.394,12.023-12.023V28.807      c0-1.146-0.932-2.077-2.077-2.077H31.577z"/></g></g></g><g><g><g><path d="M99.5,32.515l-71-2.028v-1.68c0-1.696,1.381-3.077,3.077-3.077h64.846c1.696,0,3.077,1.381,3.077,3.077V32.515z       M29.5,29.514l69,1.972v-2.679c0-1.146-0.932-2.077-2.077-2.077H31.577c-1.146,0-2.077,0.932-2.077,2.077V29.514z"/></g></g></g><g><g><g><path d="M85.43,100.5H42.57c-1.693,0-3.07-1.377-3.07-3.07V81.259h1V97.43c0,1.142,0.929,2.07,2.07,2.07H85.43      c1.142,0,2.07-0.929,2.07-2.07V81.259h1V97.43C88.5,99.123,87.123,100.5,85.43,100.5z"/></g></g></g><g><g><g><path d="M77.477,87.493H50.523c-7.181,0-13.023-5.843-13.023-13.023v-6.885c0-1.697,1.381-3.078,3.077-3.078H44.5v1h-3.923      c-1.146,0-2.077,0.933-2.077,2.078v6.885c0,6.63,5.394,12.023,12.023,12.023h26.953c6.63,0,12.023-5.394,12.023-12.023v-6.885      c0-1.146-0.932-2.078-2.077-2.078h-4.006v-1h4.006c1.696,0,3.077,1.381,3.077,3.078v6.885      C90.5,81.65,84.657,87.493,77.477,87.493z"/></g></g></g><g><g><g><rect height="1" width="29.416" x="49.417" y="64.507"/></g></g></g><g><g><g><path d="M37.5,67.667c0-1.779,1.381-3.16,3.077-3.16h3.924v1h-3.924c-1.146,0-2.077,0.933-2.077,2.078L37.5,67.667z"/></g></g></g><g><g><g><rect height="1" width="29.416" x="49.417" y="64.507"/></g></g></g><g><g><g><path d="M85.43,100.5H42.57c-0.749,0-1.475-0.281-2.044-0.792l-0.615-0.552l0.774-0.289c0.106-0.039,10.827-3.975,24.826-3.975      c7.872,0,15.309,1.226,22.102,3.644l0.654,0.232l-0.429,0.547C87.249,100.068,86.371,100.5,85.43,100.5z M42.102,99.444      c0.153,0.037,0.311,0.056,0.469,0.056H85.43c0.378,0,0.74-0.104,1.057-0.297c-6.47-2.197-13.521-3.311-20.975-3.311      C54.233,95.893,45.121,98.476,42.102,99.444z"/></g></g></g><g><g><g><path d="M50,85.5c-1.103,0-2-0.897-2-2s0.897-2,2-2s2,0.897,2,2S51.103,85.5,50,85.5z M50,82.5c-0.552,0-1,0.448-1,1      s0.448,1,1,1s1-0.448,1-1S50.552,82.5,50,82.5z"/></g></g></g><g><g><g><path d="M78,85.5c-1.103,0-2-0.897-2-2s0.897-2,2-2s2,0.897,2,2S79.103,85.5,78,85.5z M78,82.5c-0.552,0-1,0.448-1,1      s0.448,1,1,1s1-0.448,1-1S78.552,82.5,78,82.5z"/></g></g></g><g><g><g><g><path d="M48.375,70.059h-2.75c-0.827,0-1.5-0.673-1.5-1.5V37.191c0-0.827,0.673-1.5,1.5-1.5h2.75c0.827,0,1.5,0.673,1.5,1.5       v31.367C49.875,69.386,49.202,70.059,48.375,70.059z M45.625,36.691c-0.275,0-0.5,0.225-0.5,0.5v31.367       c0,0.275,0.225,0.5,0.5,0.5h2.75c0.275,0,0.5-0.225,0.5-0.5V37.191c0-0.275-0.225-0.5-0.5-0.5H45.625z"/></g></g></g><g><g><g><g><path d="M47,41.5c-1.103,0-2-0.897-2-2s0.897-2,2-2s2,0.897,2,2S48.103,41.5,47,41.5z M47,38.5c-0.552,0-1,0.448-1,1        s0.448,1,1,1s1-0.448,1-1S47.552,38.5,47,38.5z"/></g></g></g><g><g><g><path d="M47,46.5c-1.103,0-2-0.897-2-2s0.897-2,2-2s2,0.897,2,2S48.103,46.5,47,46.5z M47,43.5c-0.552,0-1,0.448-1,1        s0.448,1,1,1s1-0.448,1-1S47.552,43.5,47,43.5z"/></g></g></g></g><g><g><g><g><circle cx="46.984" cy="53.458" r="0.875"/></g></g></g><g><g><g><circle cx="46.984" cy="65.458" r="0.875"/></g></g></g></g></g><g><g><g><g><path d="M82.375,70.059h-2.75c-0.827,0-1.5-0.673-1.5-1.5V37.191c0-0.827,0.673-1.5,1.5-1.5h2.75c0.827,0,1.5,0.673,1.5,1.5       v31.367C83.875,69.386,83.202,70.059,82.375,70.059z M79.625,36.691c-0.275,0-0.5,0.225-0.5,0.5v31.367       c0,0.275,0.225,0.5,0.5,0.5h2.75c0.275,0,0.5-0.225,0.5-0.5V37.191c0-0.275-0.225-0.5-0.5-0.5H79.625z"/></g></g></g><g><g><g><g><path d="M81,41.5c-1.103,0-2-0.897-2-2s0.897-2,2-2s2,0.897,2,2S82.103,41.5,81,41.5z M81,38.5c-0.552,0-1,0.448-1,1        s0.448,1,1,1s1-0.448,1-1S81.552,38.5,81,38.5z"/></g></g></g><g><g><g><path d="M81,46.5c-1.103,0-2-0.897-2-2s0.897-2,2-2s2,0.897,2,2S82.103,46.5,81,46.5z M81,43.5c-0.552,0-1,0.448-1,1        s0.448,1,1,1s1-0.448,1-1S81.552,43.5,81,43.5z"/></g></g></g></g><g><g><g><g><path d="M85,64h-8v-4.576C77,58,78.124,58,78.493,58h4.931C84.47,58,85,58.479,85,59.424V64z M78,63h6v-3.576        C84,59.106,84,59,83.424,59h-4.931C78.014,59,78,59.036,78,59.424V63z"/></g></g></g><g><g><g><path d="M80.984,59.891c-0.474,0-0.859-0.386-0.859-0.859v-1.5c0-0.474,0.386-0.859,0.859-0.859s0.859,0.386,0.859,0.859v1.5        C81.844,59.505,81.458,59.891,80.984,59.891z"/></g></g></g></g><g><g><g><g><path d="M51,64h-8v-4.576C43,58,44.124,58,44.493,58h4.931C50.47,58,51,58.479,51,59.424V64z M44,63h6v-3.576        C50,59.106,50,59,49.424,59h-4.931C44.014,59,44,59.036,44,59.424V63z"/></g></g></g><g><g><g><path d="M46.984,59.891c-0.474,0-0.859-0.386-0.859-0.859v-1.5c0-0.474,0.386-0.859,0.859-0.859s0.859,0.386,0.859,0.859v1.5        C47.844,59.505,47.458,59.891,46.984,59.891z"/></g></g></g></g><g><g><g><g><circle cx="80.984" cy="52.458" r="0.875"/></g></g></g><g><g><g><circle cx="80.984" cy="65.458" r="0.875"/></g></g></g></g></g><g><g><g><path d="M74.024,26h-1c0-5-3.795-8.729-9.024-8.729c-5.247,0-9.056,3.729-9.056,8.729h-1c0-5,4.323-9.729,10.056-9.729      C69.809,16.271,74.024,21,74.024,26z"/></g></g></g></g></svg>