<?xml version="1.0" ?><!DOCTYPE svg  PUBLIC '-//W3C//DTD SVG 1.1//EN'  'http://www.w3.org/Graphics/SVG/1.1/DTD/svg11.dtd'><svg id="Layer_1" style="enable-background:new 0 0 128 128;" version="1.1" viewBox="0 0 128 128" xml:space="preserve" xmlns="http://www.w3.org/2000/svg" xmlns:xlink="http://www.w3.org/1999/xlink"><g><g><g><g><path d="M111.202,78h-1c0-4-2.232-6.326-2.255-6.346c-3.455-2.89-6.935-2.42-12.203-1.679c-1.168,0.165-2.409,0.329-3.739,0.477      c-7.382,0.828-14.164-3.775-14.45-3.971l0.565-0.827c0.068,0.046,6.783,4.575,13.773,3.795c1.32-0.146,2.553-0.321,3.711-0.484      c5.334-0.75,9.186-1.254,12.993,1.929C108.713,70.995,111.202,73,111.202,78z"/></g></g></g><g><g><g><g><path d="M76.567,64.98c-1.812-1.342-3.547-2.772-5.155-4.251l0.676-0.736c1.583,1.455,3.29,2.862,5.075,4.185L76.567,64.98z"/></g></g></g><g><g><g><path d="M69.944,59.334c-0.871-0.857-1.726-1.751-2.538-2.657l0.744-0.668c0.799,0.891,1.639,1.77,2.495,2.612L69.944,59.334z"/></g></g></g><g><g><g><path d="M66.312,55.418c-0.778-0.92-1.534-1.876-2.247-2.841l0.805-0.594c0.7,0.947,1.442,1.886,2.206,2.79L66.312,55.418z"/></g></g></g><g><g><g><path d="M63.035,51.136c-0.886-1.286-1.721-2.615-2.479-3.95l0.869-0.494c0.745,1.31,1.563,2.614,2.435,3.876L63.035,51.136z"/></g></g></g><g><g><g><path d="M59.77,45.754c-0.681-1.287-1.314-2.617-1.883-3.952l0.92-0.393c0.558,1.31,1.18,2.614,1.848,3.878L59.77,45.754z"/></g></g></g><g><g><g><path d="M57.197,40.098c-2.171-5.657-2.717-10.132-2.851-11.793c-0.007-0.084-0.057-0.132-0.086-0.153       c-0.034-0.023-0.087-0.047-0.157-0.033c-3.374,0.803-6.134,3.402-7.122,4.664l-0.787-0.615c1.479-1.892,4.513-4.27,7.679-5.021       c0.335-0.079,0.693-0.009,0.977,0.197c0.285,0.208,0.465,0.529,0.493,0.882c0.131,1.618,0.664,5.979,2.788,11.516       L57.197,40.098z"/></g></g></g></g><g><g><g><path d="M54.43,81.88l-0.922-0.387c1.046-2.494,2.255-4.88,2.268-4.903c4.889-6.586,17.13-2.916,17.647-2.757      c0.923,0.272,2.654,0.546,3.354,0.106c0.169-0.105,0.259-0.24,0.291-0.438c0.361-2.203,0.393-4.07,0.397-6.468      c0.003-1.393-0.745-1.925-1.404-2.395l-0.211-0.152c-0.514-0.379-2.271-1.579-5.081-3.469l0.559-0.83      c1.968,1.324,4.453,3.005,5.116,3.494l0.197,0.143c0.729,0.518,1.828,1.302,1.824,3.211c-0.005,2.444-0.037,4.351-0.411,6.628      c-0.078,0.479-0.337,0.866-0.747,1.124c-1.31,0.82-3.883,0.089-4.173,0.002c-0.125-0.039-12.088-3.624-16.512,2.324l0,0      C56.631,77.114,55.45,79.445,54.43,81.88z"/></g></g></g><g><g><g><path d="M69.131,59.918l-1.185-0.794c-0.771-0.51-1.532-1.048-2.257-1.597l0.604-0.797c0.708,0.536,1.451,1.062,2.207,1.562      l1.188,0.796L69.131,59.918z"/></g></g></g><g><g><g><path d="M64.041,56.214c-0.893-0.748-1.767-1.545-2.597-2.369l0.705-0.709c0.81,0.804,1.662,1.582,2.534,2.312L64.041,56.214z"/></g></g></g><g><g><g><path d="M60.003,52.341c-1.017-1.115-1.984-2.303-2.876-3.53l0.809-0.588c0.87,1.197,1.814,2.356,2.806,3.444L60.003,52.341z"/></g></g></g><g><g><g><path d="M56.02,47.209c-0.779-1.188-1.5-2.42-2.143-3.663l0.889-0.459c0.626,1.212,1.329,2.414,2.09,3.573L56.02,47.209z"/></g></g></g><g><g><g><path d="M17.475,58.014l-0.916-0.4c2.466-5.632,0.945-24.419,0.93-24.608l-0.053-0.638l0.633,0.104      c0.017,0.003,1.692,0.269,4.887-0.005c0.47-0.04,1.145-0.117,1.981-0.213c5.224-0.597,16.082-1.833,23.997,0.212      c0.447,0.021,2.211,0.315,3.082,3.646c0.31,1.18,0.904,3.075,1.984,5.411l-0.908,0.42c-1.11-2.402-1.724-4.359-2.043-5.577      c-0.762-2.91-2.128-2.912-2.162-2.901l-0.068,0.002l-0.079-0.018c-7.742-2.02-18.514-0.793-23.689-0.2      c-0.85,0.097-1.533,0.174-2.009,0.215c-2.221,0.188-3.728,0.131-4.509,0.065C18.782,36.882,19.813,52.673,17.475,58.014z"/></g></g></g><g><g><g><path d="M20.014,78.911c-0.153-0.322-0.303-0.624-0.447-0.916c-1.659-3.357-2.661-5.384-0.826-20.243      c1.264-10.231,0.577-17.85-0.056-21.92c0.344,5.766,0.768,17.668-1.21,22.182c-4.691,10.713-2.248,20.511-2.223,20.608      l-0.969,0.25c-0.025-0.101-2.554-10.233,2.275-21.259c2.34-5.342,1.097-22.442,0.948-24.375l-0.023-0.291l0.689-0.462      l0.182,0.021c0.09,0.011,0.212,0.021,0.349,0.029l0.371,0.025l0.082,0.363c0.556,2.446,2.24,11.477,0.576,24.951      c-1.799,14.562-0.847,16.487,0.73,19.678c0.146,0.295,0.298,0.602,0.453,0.929L20.014,78.911z"/></g></g></g><g><g><g><g><g><path d="M76.958,74.175c-1.124-2.545-11.366-9.513-17.24-13.229c-12.222-8.077-15.413-20.419-16.461-24.475l-0.095-0.364        l0.967-0.254l0.096,0.368c1.024,3.963,4.144,16.024,15.98,23.851c2.731,1.728,16.195,10.366,17.667,13.699L76.958,74.175z"/></g></g></g><g><g><g><path d="M19.239,38c-0.01,0-0.019,0-0.026,0l0.038-1.1c0.287,0,2.963-0.378,4.4-0.554c0.64-0.078,1.16-0.168,1.394-0.194        c3.542-0.404,8.238-0.886,13.153-0.921c3.717-0.026,5.184,0.404,5.806,0.589l0.146,0.04l-0.264,0.963l-0.17-0.051        c-0.578-0.173-1.926-0.571-5.511-0.554c-4.869,0.035-9.53,0.5-13.048,0.902c-0.232,0.026-0.749,0.19-1.385,0.267        C20.967,37.732,19.544,38,19.239,38z"/></g></g></g></g><g><g><g><path d="M44.028,80.154C41.212,65.029,29.02,62.296,28.897,62.271l-9.859-2.199l0.217-0.977l9.854,2.198       c0.128,0.027,3.295,0.715,6.858,3.367c3.28,2.44,7.512,7.078,9.044,15.311L44.028,80.154z"/></g></g></g></g><g><g><g><path d="M83.567,92.113l-0.056-1.462c-0.344,0.008-0.688,0.014-1.032,0.018l0.011,1.438l-0.508,0.006      c-1.072-0.009-2.109-0.039-3.114-0.086l-0.497,0.184L78.427,91c-0.006,0-0.012,0-0.019,0l-0.072,1.138l-0.505-0.06      c-1.083-0.062-2.123-0.193-3.114-0.287l-0.5-0.074l0.144-1.44c-0.345-0.038-0.69-0.086-1.035-0.129l-0.19,1.43l-0.49-0.061      c-1.11-0.134-2.146-0.281-3.103-0.433l-0.503-0.08l0.267-1.488c-0.008-0.002-0.015-0.003-0.022-0.005l-0.289,1.484l-0.483-0.085      c-1.073-0.187-2.111-0.39-3.084-0.604l-0.5-0.11l0.379-1.553c-0.339-0.085-0.678-0.172-1.016-0.262l-0.432,1.56l-0.477-0.125      c-0.776-0.202-1.193-0.334-1.193-0.334c-0.257-0.08-0.679-0.217-0.935-0.303c-0.067-0.02-7.896-2.396-15.286-3.615l-0.093,3.794      c-0.012,0.528-0.464,0.959-1.008,0.959l-7.38-0.065L34,90.161V89h-1v1.135l-4-0.104v0.001l-4-0.104V89h-1v0.902l-10.364-0.287      c-0.265-0.007-0.421-0.124-0.506-0.222c-0.19-0.22-0.159-0.483-0.141-0.642C12.994,88.711,13,88.666,13,88.618v-9.7      c0-0.552,0.389-0.967,0.904-0.967l25.562,0.959c0.099,0.004,13.345,1.479,20.474,3.775c8.244,2.655,16.202,2.809,26.423,2.644      c7.665-0.125,18.768-3.854,24.747-8.312l0.421-0.314l2.981,4.443c0.284,0.425,0.269,1.24-0.155,1.588      c-0.06,0.044-3.614,2.608-8.319,4.765l-0.482,0.222l-0.221-0.57l0.215,0.58l-0.436,0.188c-0.829,0.359-1.758,0.724-2.84,1.114      l-0.487,0.175l-0.452-1.411c-0.317,0.097-0.635,0.19-0.953,0.281l0.422,1.461l-0.466,0.146      c-0.976,0.308-1.973,0.588-2.962,0.835l-0.489,0.09L96.508,89c-0.001,0-0.001,0-0.002,0l0.356,1.62l-0.487,0.126      c-0.929,0.211-1.923,0.41-3.038,0.593l-0.485,0.084l-0.287-1.608c-0.334,0.054-0.668,0.105-1.003,0.154l0.236,1.619      l-0.509,0.062c-0.841,0.103-1.697,0.193-2.578,0.256l-0.999-0.152L87.559,90c-0.005,0-0.009,0-0.013,0l0.13,1.757l-0.516,0.135      c-1.058,0.057-2.092,0.143-3.104,0.159L83.567,92.113z M79.41,91.05c0.676,0.027,1.366,0.21,2.072,0.221L81.475,90h0.501      c0.666,0,1.334-0.177,2-0.199l0.498-0.099l0.056,1.436c0.677-0.015,1.365-0.058,2.063-0.09l-0.126-1.524l0.5-0.044      c0.331-0.026,0.663-0.056,0.993-0.088l0.496-0.047l0.155,1.565l0.027-0.002c0.688-0.049,1.359-0.114,2.021-0.191l-0.231-1.599      l0.498-0.068c0.656-0.091,1.311-0.19,1.962-0.3l0.49-0.082l0.284,1.61c0.714-0.123,1.376-0.25,2.005-0.384L95.312,88.3      l0.49-0.106c0.322-0.07,0.645-0.141,0.965-0.215l0.484-0.111l0.372,1.558c0.651-0.17,1.303-0.354,1.948-0.55l-0.427-1.489      l0.484-0.135c0.631-0.176,1.259-0.36,1.882-0.556l0.477-0.148l0.435,1.366c0.68-0.251,1.294-0.491,1.86-0.728l-0.462-1.255      l0.472-0.171c0.307-0.11,0.61-0.224,0.915-0.339l0.467-0.177l0.43,1.121c4.373-2.064,7.609-4.399,7.643-4.423l0,0      c-0.034,0-0.037-0.184-0.069-0.249l-2.394-3.566c-6.211,4.428-17.238,8.077-24.904,8.202      c-10.322,0.163-18.364,0.008-26.745-2.692c-6.641-2.14-19.46-3.675-20.213-3.728l-25.417-0.955L14,88.618      c0,0.002,0,0.005,0,0.007l9,0.25V88h3v0.953l2,0.052V88h2v1.057l2,0.052V88h3v1.187l2,0.052V88h2v1.281l5.857,0.036l0.14-4.921      l0.563,0.089c7.62,1.199,15.916,3.717,15.998,3.742c0.264,0.089,0.678,0.222,0.93,0.302c0.007,0.001,0.237,0.074,0.67,0.192      l0.433-1.566l0.481,0.132c0.648,0.178,1.301,0.347,1.954,0.504l0.487,0.118l-0.372,1.528c0.662,0.141,1.351,0.275,2.059,0.403      l0.292-1.499l0.491,0.095c0.329,0.064,0.66,0.126,0.99,0.186l0.492,0.088l-0.263,1.465c0.655,0.1,1.346,0.197,2.07,0.289      l0.191-1.442l0.495,0.065c0.665,0.089,1.332,0.167,1.999,0.235l0.497,0.05l-0.144,1.417c0.671,0.06,1.363,0.112,2.075,0.157      l0.077-1.411l0.499,0.027c0.335,0.019,0.668,0.036,1.003,0.049l0.499,0.021L79.41,91.05z"/></g></g></g><g><g><g><g><path d="M67.33,62.755c-0.555,0-1.058-0.325-1.282-0.83c-0.313-0.705,0.006-1.535,0.71-1.85l4.034-1.795       c0.69-0.308,1.545,0.028,1.849,0.711c0.151,0.341,0.161,0.721,0.026,1.07c-0.134,0.351-0.396,0.627-0.736,0.778l-4.033,1.795       C67.718,62.715,67.526,62.755,67.33,62.755z M71.357,59.16c-0.055,0-0.108,0.012-0.159,0.034l-4.033,1.795       c-0.201,0.09-0.293,0.327-0.203,0.529c0.085,0.193,0.332,0.287,0.529,0.202l4.033-1.795c0.097-0.043,0.171-0.122,0.209-0.222       c0.039-0.101,0.036-0.21-0.007-0.307C71.662,59.253,71.518,59.16,71.357,59.16z"/></g></g></g><g><g><g><path d="M62.076,59.439c-0.555,0-1.058-0.325-1.282-0.83c-0.313-0.705,0.006-1.535,0.71-1.85l5.298-2.357       c0.69-0.307,1.546,0.028,1.849,0.711c0.151,0.341,0.161,0.721,0.026,1.07c-0.134,0.351-0.396,0.627-0.736,0.778l-5.298,2.357       C62.463,59.399,62.272,59.439,62.076,59.439z M67.367,55.282c-0.055,0-0.108,0.012-0.159,0.034l-5.297,2.357       c-0.201,0.09-0.293,0.327-0.203,0.529c0.085,0.193,0.33,0.288,0.528,0.202l5.298-2.357c0.097-0.043,0.171-0.122,0.209-0.222       c0.039-0.101,0.036-0.21-0.007-0.307C67.672,55.375,67.527,55.282,67.367,55.282z"/></g></g></g><g><g><g><path d="M57.509,55.803c-0.553,0-1.057-0.326-1.281-0.83c-0.314-0.706,0.004-1.535,0.71-1.85l6.588-2.933       c0.691-0.307,1.545,0.029,1.849,0.711c0.151,0.34,0.161,0.72,0.027,1.069c-0.134,0.351-0.396,0.627-0.737,0.779l-6.588,2.932       C57.896,55.762,57.705,55.803,57.509,55.803z M64.091,51.07c-0.055,0-0.108,0.012-0.159,0.034l-6.588,2.933       c-0.198,0.088-0.291,0.33-0.203,0.528c0.087,0.193,0.332,0.292,0.528,0.202l6.589-2.932c0.097-0.043,0.171-0.122,0.21-0.223       c0.038-0.101,0.036-0.208-0.007-0.305C64.396,51.163,64.251,51.07,64.091,51.07z"/></g></g></g><g><g><g><path d="M53.315,50.912c-0.555,0-1.058-0.326-1.282-0.831c-0.151-0.34-0.161-0.72-0.027-1.069       c0.134-0.351,0.396-0.627,0.737-0.779l7.956-3.541c0.687-0.306,1.544,0.027,1.85,0.71c0.151,0.342,0.161,0.722,0.026,1.071       c-0.135,0.351-0.396,0.627-0.737,0.778l-7.956,3.541C53.702,50.872,53.512,50.912,53.315,50.912z M61.267,45.571       c-0.056,0-0.11,0.012-0.161,0.034l-7.956,3.541c-0.097,0.043-0.171,0.122-0.21,0.223c-0.038,0.101-0.036,0.208,0.007,0.305       c0.086,0.195,0.332,0.29,0.529,0.204l7.956-3.541c0.097-0.043,0.172-0.122,0.21-0.223c0.039-0.101,0.036-0.209-0.007-0.306       C61.57,45.665,61.426,45.571,61.267,45.571z"/></g></g></g><g><g><g><path d="M50.648,45.571c-0.555,0-1.059-0.326-1.283-0.831c-0.151-0.341-0.161-0.721-0.026-1.07       c0.135-0.351,0.396-0.627,0.737-0.778l7.956-3.541c0.688-0.307,1.544,0.026,1.849,0.71c0.313,0.706-0.005,1.536-0.71,1.85       l-7.957,3.541C51.034,45.531,50.844,45.571,50.648,45.571z M58.599,40.23c-0.056,0-0.109,0.012-0.16,0.034l-7.956,3.541       c-0.097,0.043-0.172,0.122-0.21,0.223c-0.039,0.101-0.036,0.209,0.007,0.306c0.086,0.193,0.328,0.292,0.528,0.203l7.957-3.541       c0.201-0.09,0.292-0.327,0.202-0.529C58.903,40.323,58.759,40.23,58.599,40.23z"/></g></g></g></g></g></svg>