<?xml version="1.0" encoding="iso-8859-1"?>
<!-- Generator: Adobe Illustrator 18.0.0, SVG Export Plug-In . SVG Version: 6.00 Build 0)  -->
<!DOCTYPE svg PUBLIC "-//W3C//DTD SVG 1.1//EN" "http://www.w3.org/Graphics/SVG/1.1/DTD/svg11.dtd">
<svg version="1.1" id="Capa_1" xmlns="http://www.w3.org/2000/svg" xmlns:xlink="http://www.w3.org/1999/xlink" x="0px" y="0px"
	 viewBox="0 0 435.607 435.607" style="enable-background:new 0 0 435.607 435.607;" xml:space="preserve">
<g>
	<g>
		<g>
			<g>
				<path d="M179.148,151.41c-13.763,0-24.96-11.312-24.96-25.217c0-13.905,11.197-25.217,24.96-25.217
					c13.762,0,24.957,11.313,24.957,25.217C204.105,140.098,192.909,151.41,179.148,151.41z M179.148,110.976
					c-8.249,0-14.96,6.827-14.96,15.217c0,8.391,6.711,15.217,14.96,15.217c8.247,0,14.957-6.826,14.957-15.217
					C194.105,117.803,187.395,110.976,179.148,110.976z"/>
			</g>
			<g>
				<path d="M256.46,151.41c-13.763,0-24.959-11.312-24.959-25.217c0-13.905,11.196-25.217,24.959-25.217
					c13.763,0,24.959,11.313,24.959,25.217C281.419,140.098,270.223,151.41,256.46,151.41z M256.46,110.976
					c-8.248,0-14.959,6.827-14.959,15.217c0,8.391,6.711,15.217,14.959,15.217c8.248,0,14.959-6.826,14.959-15.217
					C271.419,117.803,264.708,110.976,256.46,110.976z"/>
			</g>
		</g>
		<g>
			<g>
				<g>
					<path d="M169.033,78.998c-1.319,0-2.609-0.53-3.54-1.46c-0.93-0.93-1.46-2.22-1.46-3.54c0-1.31,0.53-2.6,1.46-3.53
						c0.931-0.93,2.221-1.47,3.54-1.47c1.311,0,2.601,0.54,3.53,1.47c0.93,0.93,1.47,2.22,1.47,3.53c0,1.32-0.54,2.61-1.47,3.54
						C171.634,78.468,170.344,78.998,169.033,78.998z"/>
				</g>
				<g>
					<path d="M169.033,61.928c-1.319,0-2.609-0.54-3.54-1.47c-0.93-0.93-1.46-2.22-1.46-3.53c0-1.32,0.53-2.61,1.46-3.54
						c0.931-0.93,2.221-1.46,3.54-1.46c1.311,0,2.601,0.53,3.53,1.46c0.93,0.94,1.47,2.23,1.47,3.54s-0.54,2.6-1.47,3.53
						C171.634,61.388,170.344,61.928,169.033,61.928z"/>
				</g>
				<g>
					<path d="M169.033,44.848c-1.319,0-2.609-0.53-3.54-1.46c-0.93-0.93-1.46-2.22-1.46-3.54c0-1.32,0.53-2.6,1.46-3.53
						c0.931-0.93,2.221-1.47,3.54-1.47c1.311,0,2.601,0.54,3.53,1.47c0.93,0.93,1.47,2.22,1.47,3.53c0,1.32-0.54,2.6-1.47,3.54
						C171.634,44.318,170.344,44.848,169.033,44.848z"/>
				</g>
			</g>
			<g>
				<g>
					<path d="M266.573,78.998c-1.31,0-2.6-0.53-3.529-1.46c-0.931-0.93-1.471-2.22-1.471-3.53c0-1.32,0.54-2.61,1.471-3.54
						c0.93-0.93,2.22-1.46,3.529-1.46c1.32,0,2.61,0.53,3.54,1.46c0.931,0.93,1.46,2.22,1.46,3.54c0,1.31-0.529,2.6-1.46,3.53
						C269.184,78.468,267.894,78.998,266.573,78.998z"/>
				</g>
				<g>
					<path d="M266.573,61.928c-1.31,0-2.6-0.54-3.529-1.47c-0.931-0.93-1.471-2.21-1.471-3.53c0-1.32,0.54-2.61,1.471-3.54
						c0.93-0.93,2.22-1.46,3.529-1.46c1.32,0,2.61,0.53,3.54,1.46c0.931,0.93,1.46,2.22,1.46,3.54c0,1.32-0.529,2.6-1.46,3.53
						C269.184,61.388,267.894,61.928,266.573,61.928z"/>
				</g>
				<g>
					<path d="M266.573,44.848c-1.31,0-2.6-0.53-3.529-1.46c-0.931-0.93-1.471-2.22-1.471-3.54c0-1.32,0.54-2.61,1.471-3.54
						c0.93-0.93,2.22-1.46,3.529-1.46c1.32,0,2.61,0.53,3.54,1.46c0.931,0.93,1.46,2.22,1.46,3.54c0,1.32-0.529,2.61-1.46,3.54
						C269.184,44.318,267.894,44.848,266.573,44.848z"/>
				</g>
			</g>
		</g>
		<g>
			<g>
				<path d="M234.764,78.768c-1.32,0-2.61-0.53-3.54-1.46s-1.46-2.22-1.46-3.54c0-1.32,0.53-2.6,1.46-3.53
					c0.93-0.93,2.22-1.47,3.54-1.47c1.31,0,2.6,0.54,3.53,1.47c0.939,0.93,1.47,2.21,1.47,3.53c0,1.32-0.53,2.61-1.47,3.54
					C237.364,78.238,236.073,78.768,234.764,78.768z"/>
			</g>
			<g>
				<path d="M200.844,78.768c-1.32,0-2.6-0.53-3.54-1.46c-0.931-0.93-1.46-2.22-1.46-3.54c0-1.32,0.529-2.6,1.46-3.53
					c0.939-0.93,2.22-1.47,3.54-1.47c1.31,0,2.6,0.54,3.54,1.47c0.93,0.93,1.46,2.22,1.46,3.53c0,1.32-0.53,2.61-1.46,3.54
					C203.444,78.238,202.154,78.768,200.844,78.768z"/>
			</g>
		</g>
		<g>
			<g>
				<g>
					<g>
						<path d="M158.774,187.898c-1.32,0-2.6-0.54-3.53-1.47c-0.93-0.93-1.47-2.21-1.47-3.53c0-1.32,0.54-2.61,1.47-3.54
							c0.931-0.93,2.21-1.46,3.53-1.46s2.61,0.53,3.54,1.46c0.93,0.93,1.46,2.22,1.46,3.54c0,1.31-0.53,2.6-1.46,3.53
							C161.384,187.358,160.094,187.898,158.774,187.898z"/>
					</g>
					<g>
						<path d="M146.694,203.338c-1.32,0-2.609-0.54-3.54-1.47c-0.93-0.93-1.46-2.22-1.46-3.53c0-1.32,0.53-2.61,1.46-3.54
							c0.931-0.93,2.22-1.46,3.54-1.46c1.311,0,2.601,0.53,3.53,1.46c0.93,0.93,1.47,2.22,1.47,3.54c0,1.31-0.54,2.6-1.47,3.53
							C149.294,202.798,148.004,203.338,146.694,203.338z"/>
					</g>
					<g>
						<path d="M135.934,186.258c-1.32,0-2.61-0.54-3.54-1.47c-0.93-0.93-1.46-2.21-1.46-3.53c0-1.32,0.53-2.61,1.46-3.54
							c0.93-0.93,2.22-1.46,3.54-1.46c1.31,0,2.6,0.53,3.53,1.46c0.93,0.93,1.47,2.22,1.47,3.54c0,1.32-0.54,2.6-1.47,3.53
							C138.533,185.718,137.243,186.258,135.934,186.258z"/>
					</g>
				</g>
				<g>
					<g>
						<path d="M206.104,213.628c-1.32,0-2.6-0.53-3.53-1.47c-0.93-0.92-1.47-2.21-1.47-3.53c0-1.32,0.54-2.61,1.47-3.54
							c0.931-0.93,2.21-1.46,3.53-1.46s2.61,0.53,3.54,1.46c0.93,0.94,1.46,2.23,1.46,3.54s-0.53,2.6-1.46,3.53
							C208.714,213.098,207.424,213.628,206.104,213.628z"/>
					</g>
					<g>
						<path d="M185.993,219.478c-1.319,0-2.609-0.54-3.54-1.47c-0.93-0.93-1.47-2.22-1.47-3.53c0-1.32,0.54-2.61,1.47-3.54
							c0.931-0.93,2.221-1.46,3.54-1.46c1.311,0,2.6,0.53,3.53,1.46c0.93,0.93,1.47,2.22,1.47,3.54c0,1.31-0.54,2.6-1.47,3.53
							C188.594,218.938,187.304,219.478,185.993,219.478z"/>
					</g>
					<g>
						<path d="M174.993,234.918c-1.319,0-2.609-0.54-3.54-1.47c-0.93-0.93-1.46-2.22-1.46-3.54c0-1.31,0.53-2.6,1.46-3.53
							c0.931-0.93,2.221-1.46,3.54-1.46c1.311,0,2.6,0.53,3.54,1.46c0.931,0.93,1.46,2.22,1.46,3.53c0,1.32-0.529,2.61-1.46,3.54
							C177.594,234.378,176.304,234.918,174.993,234.918z"/>
					</g>
					<g>
						<path d="M206.104,236.548c-1.31,0-2.6-0.53-3.53-1.46c-0.93-0.93-1.47-2.22-1.47-3.54c0-1.31,0.54-2.6,1.47-3.53
							c0.931-0.93,2.21-1.47,3.53-1.47s2.61,0.54,3.54,1.47c0.93,0.93,1.46,2.22,1.46,3.53c0,1.32-0.53,2.61-1.46,3.54
							C208.714,236.018,207.424,236.548,206.104,236.548z"/>
					</g>
					<g>
						<path d="M206.104,259.478c-1.31,0-2.6-0.54-3.53-1.47c-0.93-0.93-1.47-2.21-1.47-3.53c0-1.32,0.54-2.61,1.47-3.54
							c0.931-0.93,2.221-1.46,3.53-1.46c1.32,0,2.61,0.53,3.54,1.46c0.93,0.93,1.46,2.22,1.46,3.54c0,1.31-0.53,2.6-1.46,3.53
							C208.714,258.938,207.424,259.478,206.104,259.478z"/>
					</g>
				</g>
			</g>
			<g>
				<g>
					<g>
						<path d="M276.834,187.898c-1.32,0-2.61-0.54-3.54-1.47c-0.931-0.93-1.46-2.22-1.46-3.53c0-1.32,0.529-2.61,1.46-3.54
							c0.93-0.93,2.22-1.46,3.54-1.46c1.309,0,2.6,0.53,3.529,1.46c0.931,0.93,1.471,2.22,1.471,3.54c0,1.31-0.54,2.6-1.471,3.53
							C279.434,187.358,278.144,187.898,276.834,187.898z"/>
					</g>
					<g>
						<path d="M288.913,203.338c-1.31,0-2.6-0.54-3.529-1.47c-0.931-0.93-1.471-2.22-1.471-3.53c0-1.32,0.54-2.61,1.471-3.54
							c0.93-0.93,2.21-1.46,3.529-1.46c1.32,0,2.61,0.53,3.54,1.46c0.931,0.93,1.46,2.22,1.46,3.54c0,1.31-0.529,2.6-1.46,3.53
							C291.514,202.798,290.234,203.338,288.913,203.338z"/>
					</g>
					<g>
						<path d="M299.674,186.258c-1.31,0-2.601-0.54-3.53-1.47c-0.93-0.92-1.47-2.21-1.47-3.53c0-1.32,0.54-2.61,1.47-3.54
							c0.93-0.93,2.22-1.46,3.53-1.46c1.319,0,2.609,0.53,3.54,1.46c0.93,0.93,1.46,2.22,1.46,3.54c0,1.309-0.53,2.6-1.46,3.53
							C302.283,185.718,300.993,186.258,299.674,186.258z"/>
					</g>
				</g>
				<g>
					<g>
						<path d="M229.493,213.628c-1.31,0-2.6-0.54-3.529-1.47c-0.931-0.92-1.471-2.21-1.471-3.53c0-1.32,0.54-2.61,1.471-3.54
							c0.93-0.93,2.22-1.46,3.529-1.46c1.32,0,2.61,0.53,3.54,1.46c0.931,0.93,1.46,2.22,1.46,3.54c0,1.32-0.529,2.6-1.46,3.53
							C232.104,213.088,230.814,213.628,229.493,213.628z"/>
					</g>
					<g>
						<path d="M249.614,219.478c-1.319,0-2.6-0.54-3.529-1.47c-0.931-0.93-1.471-2.22-1.471-3.53c0-1.32,0.54-2.61,1.471-3.54
							c0.93-0.93,2.22-1.46,3.529-1.46c1.32,0,2.601,0.53,3.54,1.46c0.931,0.93,1.46,2.22,1.46,3.54c0,1.31-0.529,2.6-1.46,3.53
							C252.214,218.938,250.934,219.478,249.614,219.478z"/>
					</g>
					<g>
						<path d="M260.614,234.918c-1.319,0-2.609-0.54-3.54-1.47c-0.93-0.93-1.46-2.22-1.46-3.53c0-1.32,0.53-2.61,1.46-3.54
							c0.931-0.93,2.221-1.46,3.54-1.46c1.31,0,2.601,0.53,3.53,1.46c0.93,0.93,1.47,2.22,1.47,3.54c0,1.31-0.54,2.6-1.47,3.53
							C263.214,234.378,261.924,234.918,260.614,234.918z"/>
					</g>
					<g>
						<path d="M229.493,236.548c-1.31,0-2.6-0.53-3.529-1.46c-0.931-0.93-1.471-2.22-1.471-3.54c0-1.31,0.54-2.6,1.471-3.53
							c0.93-0.93,2.22-1.47,3.529-1.47c1.32,0,2.61,0.54,3.54,1.47c0.931,0.93,1.46,2.22,1.46,3.53c0,1.32-0.529,2.61-1.46,3.54
							C232.104,236.018,230.814,236.548,229.493,236.548z"/>
					</g>
					<g>
						<path d="M229.493,259.478c-1.31,0-2.6-0.54-3.529-1.47c-0.931-0.92-1.471-2.21-1.471-3.53c0-1.32,0.54-2.61,1.471-3.54
							c0.93-0.93,2.22-1.46,3.529-1.46c1.32,0,2.61,0.53,3.54,1.46c0.931,0.93,1.46,2.22,1.46,3.54c0,1.31-0.529,2.6-1.46,3.53
							C232.104,258.938,230.814,259.478,229.493,259.478z"/>
					</g>
				</g>
			</g>
		</g>
		<path d="M254.636,85.498c-0.612-2.148-2.575-3.629-4.809-3.629H185.78c-2.233,0-4.195,1.481-4.809,3.629
			c-0.612,2.148,0.273,4.441,2.171,5.619l32.023,19.883c0.821,0.51,1.732,0.753,2.633,0.752c0.93,0,1.843-0.268,2.638-0.76
			l0.005,0.008l32.024-19.883C254.363,89.939,255.248,87.646,254.636,85.498z M217.803,100.867l-14.491-8.997h28.983
			L217.803,100.867z"/>
		<g>
			<g>
				<path d="M217.804,168.918c-1.32,0-2.61-0.53-3.54-1.46c-0.93-0.93-1.46-2.22-1.46-3.54c0-1.31,0.53-2.6,1.46-3.53
					c0.939-0.93,2.22-1.47,3.54-1.47c1.31,0,2.6,0.54,3.53,1.47c0.939,0.93,1.47,2.22,1.47,3.53c0,1.32-0.53,2.61-1.47,3.54
					C220.404,168.388,219.114,168.918,217.804,168.918z"/>
			</g>
			<path d="M241.915,157.51l-21.307-13.864c-0.004-0.003-0.009-0.006-0.014-0.009l-0.064-0.042l-0.004,0.005
				c-1.606-1.044-3.739-1.119-5.449-0.005l-21.385,13.915c-1.408,0.916-2.262,2.477-2.273,4.156
				c-0.039,5.508,1.859,10.326,5.49,13.933c7.164,7.12,17.943,7.46,20.895,7.46c2.951,0,13.73-0.34,20.895-7.46
				c3.631-3.607,5.529-8.425,5.49-13.933C244.177,159.986,243.323,158.426,241.915,157.51z M231.67,168.485
				c-3.763,3.763-10.571,4.573-13.867,4.573s-10.005-0.737-13.845-4.552c-1.18-1.172-1.94-2.575-2.299-4.249l16.145-10.506
				l16.145,10.506C233.592,165.921,232.838,167.318,231.67,168.485z"/>
		</g>
	</g>
	<path d="M394.699,315.658c-12.978-7.375-34.33-14.342-50.443-19.007c9.865-0.311,26.11,2.884,26.227,2.912
		c2.258,0.557,4.608-0.522,5.659-2.602c1.05-2.08,0.524-4.609-1.268-6.098C342.458,263.91,310.801,261,298.695,261
		c-3.564,0-5.628,0.242-5.852,0.27c-1.501,0.185-2.838,1.04-3.636,2.326c-0.949,1.53-1.853,3.188-2.722,4.941
		c-2.814-2.818-6.051-8.414-5.219-18.953c4.613-4.062,8.977-8.592,13.043-13.586c20.124-24.716,31.207-58.655,31.207-95.564
		c0-37.26-11.045-72.343-31.101-98.787C274.049,14.79,246.84,0,217.802,0c-29.036,0-56.244,14.79-76.612,41.646
		c-20.055,26.444-31.1,61.527-31.1,98.787c0,36.909,11.083,70.848,31.206,95.564c4.16,5.109,8.632,9.734,13.362,13.867
		c0.841,10.512-2.564,16.036-5.479,18.786c-0.886-1.796-1.809-3.492-2.778-5.055c-0.798-1.286-2.135-2.141-3.636-2.326
		c-0.224-0.028-2.288-0.27-5.852-0.27c-12.106,0-43.764,2.91-76.181,29.864c-1.791,1.489-2.315,4.016-1.268,6.095
		c1.048,2.08,3.396,3.16,5.656,2.605c0.119-0.029,13.126-2.686,26.229-2.913c-16.113,4.664-37.466,11.632-50.443,19.007
		C12.347,331.889,7.735,387.199,8.896,430.74c0.072,2.708,2.288,4.867,4.998,4.867h407.819c2.71,0,4.926-2.158,4.998-4.867
		C427.872,387.199,423.262,331.89,394.699,315.658z M38.19,425.607h-19.4c-0.752-48.549,7.035-83.11,21.688-97.179
		C37.608,345.54,33.737,379.999,38.19,425.607z M314.622,122.814h-10.66v-8.494h9.586
		C313.976,117.12,314.331,119.953,314.622,122.814z M222.05,10.131v10.32h-8.494V10.13c1.408-0.08,2.823-0.13,4.246-0.13
		C219.226,10,220.641,10.05,222.05,10.131z M122.059,114.32h9.584v8.494h-10.658C121.276,119.953,121.63,117.12,122.059,114.32z
		 M120.09,140.433c0-2.558,0.062-5.097,0.171-7.619h16.382c2.762,0,5-2.239,5-5V109.32c0-2.761-2.238-5-5-5h-12.74
		c10.483-48.494,41.523-85.462,79.653-92.93v14.06c0,2.761,2.238,5,5,5h18.494c2.762,0,5-2.239,5-5v-14.06
		c38.13,7.468,69.172,44.436,79.654,92.929h-12.742c-2.762,0-5,2.239-5,5v18.494c0,2.761,2.238,5,5,5h16.384
		c0.109,2.522,0.171,5.061,0.171,7.619c0,70.53-42.008,123.716-97.715,123.716C162.097,264.149,120.09,210.962,120.09,140.433z
		 M164.568,257.539c15.911,10.839,34.118,16.609,53.234,16.609c19.248,0,37.574-5.846,53.563-16.828
		c1.178,11.657,6.9,17.813,11.098,20.803c-0.275,0.768-0.545,1.547-0.81,2.339c-6.95,8.472-31.366,17.31-63.87,17.31
		c-32.199,0-56.567-8.703-63.754-17.088c-0.277-0.833-0.56-1.653-0.847-2.46C157.499,275.293,163.37,269.207,164.568,257.539z
		 M157.828,425.607H48.234c-5.532-55.49,1.774-94.917,3.822-104.437c23.109-10.848,62.82-20.488,63.258-20.594
		c2.09-0.504,3.625-2.288,3.809-4.431c0.185-2.143-1.021-4.164-2.994-5.018c-6.862-2.973-15.493-4.48-25.651-4.48
		c-2.364,0-4.679,0.081-6.899,0.218c25.837-15.444,48.362-16.098,55.594-15.825C158.659,306.468,158.219,402.867,157.828,425.607z
		 M166.365,358.121l45.751,17.686l-3.867,18.567l-41.614-31.858C166.55,361.057,166.461,359.593,166.365,358.121z M267.767,425.607
		h-99.926c0.17-8.82,0.346-27.739-0.56-50.003l41.202,31.543c0.885,0.678,1.956,1.03,3.04,1.03c0.586,0,1.176-0.103,1.742-0.313
		c1.61-0.599,2.801-1.984,3.151-3.667l6.199-29.761l26.089-47.098l23.159,1.635C267.184,368.419,267.486,410.952,267.767,425.607z
		 M273.163,319.039l-26.936-1.901c-1.947-0.139-3.784,0.864-4.726,2.565l-25.888,46.735l-50.063-19.353
		c-1.459-17.649-3.756-35.614-7.326-51.18c14.1,7.286,36.032,11.867,59.557,11.867c23.6,0,45.544-4.599,59.615-11.92
		C275.722,303.147,274.323,310.965,273.163,319.039z M387.373,425.607H277.78c-0.393-22.738-0.838-119.128,18.656-154.567
		c7.237-0.272,29.758,0.382,55.593,15.825c-2.221-0.137-4.535-0.218-6.899-0.218c-10.158,0-18.788,1.507-25.651,4.48
		c-1.974,0.854-3.179,2.875-2.994,5.018c0.185,2.143,1.72,3.927,3.81,4.431c0.438,0.105,40.152,9.747,63.261,20.595
		C385.607,330.671,392.92,370,387.373,425.607z M416.818,425.607h-19.399c4.454-45.613,0.579-80.067-2.29-97.18
		C409.783,342.496,417.57,377.057,416.818,425.607z"/>
</g>
<g>
</g>
<g>
</g>
<g>
</g>
<g>
</g>
<g>
</g>
<g>
</g>
<g>
</g>
<g>
</g>
<g>
</g>
<g>
</g>
<g>
</g>
<g>
</g>
<g>
</g>
<g>
</g>
<g>
</g>
</svg>
