<?xml version="1.0" encoding="iso-8859-1"?>
<!-- Generator: Adobe Illustrator 17.1.0, SVG Export Plug-In . SVG Version: 6.00 Build 0)  -->
<!DOCTYPE svg PUBLIC "-//W3C//DTD SVG 1.1//EN" "http://www.w3.org/Graphics/SVG/1.1/DTD/svg11.dtd">
<svg version="1.1" id="Capa_1" xmlns="http://www.w3.org/2000/svg" xmlns:xlink="http://www.w3.org/1999/xlink" x="0px" y="0px"
	 viewBox="0 0 201.38 201.38" style="enable-background:new 0 0 201.38 201.38;" xml:space="preserve">
<path d="M13.686,201.38c-2.625,0-5.251-0.999-7.25-2.998l-0.118-0.118c-3.998-3.998-3.998-10.504,0-14.502L189.497,0.584
	c0.463-0.463,1.126-0.665,1.767-0.555c0.645,0.115,1.191,0.539,1.465,1.134c0.609,1.324,14.687,32.698-5.542,54.153
	C167.82,75.856,67.322,166.985,66.308,167.903c-0.79,0.717-2.002,0.688-2.757-0.067l-6.034-6.034l-36.58,36.581
	C18.938,200.381,16.312,201.38,13.686,201.38z M45.726,150.01l-36.58,36.58c-2.438,2.438-2.438,6.407,0,8.846l0.118,0.118
	c2.438,2.438,6.406,2.437,8.845,0l36.58-36.581L45.726,150.01z M59.9,158.528l5.133,5.132
	C77.353,152.476,166.27,71.67,184.276,52.572c15.104-16.02,8.712-39.137,5.892-47.003l-5.151,5.152
	c2.279,11.391,2.455,27.429-9.299,39.894C158.224,69.168,72.559,147.035,59.9,158.528z M48.554,147.182l8.515,8.514
	c12.123-11.005,98.277-89.305,115.738-107.824c9.713-10.301,10.34-23.511,8.76-33.701L48.554,147.182z"/>
<g>
</g>
<g>
</g>
<g>
</g>
<g>
</g>
<g>
</g>
<g>
</g>
<g>
</g>
<g>
</g>
<g>
</g>
<g>
</g>
<g>
</g>
<g>
</g>
<g>
</g>
<g>
</g>
<g>
</g>
</svg>
