<svg width="128" height="128" xmlns="http://www.w3.org/2000/svg">

 <g>
  <title>background</title>
  <rect fill="none" id="canvas_background" height="402" width="582" y="-1" x="-1"/>
 </g>
 <g>
  <title>Layer 1</title>
  <g id="svg_1">
   <g id="svg_2">
    <g id="svg_3">
     <g id="svg_4">
      <path fill="#def0ac" id="svg_5" d="m111.202,78l-1,0c0,-4 -2.232,-6.326 -2.255,-6.346c-3.455,-2.89 -6.935,-2.42 -12.203,-1.679c-1.168,0.165 -2.409,0.329 -3.739,0.477c-7.382,0.828 -14.164,-3.775 -14.45,-3.971l0.565,-0.827c0.068,0.046 6.783,4.575 13.773,3.795c1.32,-0.146 2.553,-0.321 3.711,-0.484c5.334,-0.75 9.186,-1.254 12.993,1.929c0.116,0.101 2.605,2.106 2.605,7.106z"/>
     </g>
    </g>
   </g>
   <g id="svg_6">
    <g id="svg_7">
     <g id="svg_8">
      <g id="svg_9">
       <path fill="#def0ac" id="svg_10" d="m76.567,64.98c-1.812,-1.342 -3.547,-2.772 -5.155,-4.251l0.676,-0.736c1.583,1.455 3.29,2.862 5.075,4.185l-0.596,0.802z"/>
      </g>
     </g>
    </g>
    <g id="svg_11">
     <g id="svg_12">
      <g id="svg_13">
       <path fill="#def0ac" id="svg_14" d="m69.944,59.334c-0.871,-0.857 -1.726,-1.751 -2.538,-2.657l0.744,-0.668c0.799,0.891 1.639,1.77 2.495,2.612l-0.701,0.713z"/>
      </g>
     </g>
    </g>
    <g id="svg_15">
     <g id="svg_16">
      <g id="svg_17">
       <path fill="#def0ac" id="svg_18" d="m66.312,55.418c-0.778,-0.92 -1.534,-1.876 -2.247,-2.841l0.805,-0.594c0.7,0.947 1.442,1.886 2.206,2.79l-0.764,0.645z"/>
      </g>
     </g>
    </g>
    <g id="svg_19">
     <g id="svg_20">
      <g id="svg_21">
       <path fill="#def0ac" id="svg_22" d="m63.035,51.136c-0.886,-1.286 -1.721,-2.615 -2.479,-3.95l0.869,-0.494c0.745,1.31 1.563,2.614 2.435,3.876l-0.825,0.568z"/>
      </g>
     </g>
    </g>
    <g id="svg_23">
     <g id="svg_24">
      <g id="svg_25">
       <path fill="#def0ac" id="svg_26" d="m59.77,45.754c-0.681,-1.287 -1.314,-2.617 -1.883,-3.952l0.92,-0.393c0.558,1.31 1.18,2.614 1.848,3.878l-0.885,0.467z"/>
      </g>
     </g>
    </g>
    <g id="svg_27">
     <g id="svg_28">
      <g id="svg_29">
       <path fill="#def0ac" id="svg_30" d="m57.197,40.098c-2.171,-5.657 -2.717,-10.132 -2.851,-11.793c-0.007,-0.084 -0.057,-0.132 -0.086,-0.153c-0.034,-0.023 -0.087,-0.047 -0.157,-0.033c-3.374,0.803 -6.134,3.402 -7.122,4.664l-0.787,-0.615c1.479,-1.892 4.513,-4.27 7.679,-5.021c0.335,-0.079 0.693,-0.009 0.977,0.197c0.285,0.208 0.465,0.529 0.493,0.882c0.131,1.618 0.664,5.979 2.788,11.516l-0.934,0.356z"/>
      </g>
     </g>
    </g>
   </g>
   <g id="svg_31">
    <g id="svg_32">
     <g id="svg_33">
      <path fill="#def0ac" id="svg_34" d="m54.43,81.88l-0.922,-0.387c1.046,-2.494 2.255,-4.88 2.268,-4.903c4.889,-6.586 17.13,-2.916 17.647,-2.757c0.923,0.272 2.654,0.546 3.354,0.106c0.169,-0.105 0.259,-0.24 0.291,-0.438c0.361,-2.203 0.393,-4.07 0.397,-6.468c0.003,-1.393 -0.745,-1.925 -1.404,-2.395l-0.211,-0.152c-0.514,-0.379 -2.271,-1.579 -5.081,-3.469l0.559,-0.83c1.968,1.324 4.453,3.005 5.116,3.494l0.197,0.143c0.729,0.518 1.828,1.302 1.824,3.211c-0.005,2.444 -0.037,4.351 -0.411,6.628c-0.078,0.479 -0.337,0.866 -0.747,1.124c-1.31,0.82 -3.883,0.089 -4.173,0.002c-0.125,-0.039 -12.088,-3.624 -16.512,2.324l0,0c0.009,0.001 -1.172,2.332 -2.192,4.767z"/>
     </g>
    </g>
   </g>
   <g id="svg_35">
    <g id="svg_36">
     <g id="svg_37">
      <path fill="#def0ac" id="svg_38" d="m69.131,59.918l-1.185,-0.794c-0.771,-0.51 -1.532,-1.048 -2.257,-1.597l0.604,-0.797c0.708,0.536 1.451,1.062 2.207,1.562l1.188,0.796l-0.557,0.83z"/>
     </g>
    </g>
   </g>
   <g id="svg_39">
    <g id="svg_40">
     <g id="svg_41">
      <path fill="#def0ac" id="svg_42" d="m64.041,56.214c-0.893,-0.748 -1.767,-1.545 -2.597,-2.369l0.705,-0.709c0.81,0.804 1.662,1.582 2.534,2.312l-0.642,0.766z"/>
     </g>
    </g>
   </g>
   <g id="svg_43">
    <g id="svg_44">
     <g id="svg_45">
      <path fill="#def0ac" id="svg_46" d="m60.003,52.341c-1.017,-1.115 -1.984,-2.303 -2.876,-3.53l0.809,-0.588c0.87,1.197 1.814,2.356 2.806,3.444l-0.739,0.674z"/>
     </g>
    </g>
   </g>
   <g id="svg_47">
    <g id="svg_48">
     <g id="svg_49">
      <path fill="#def0ac" id="svg_50" d="m56.02,47.209c-0.779,-1.188 -1.5,-2.42 -2.143,-3.663l0.889,-0.459c0.626,1.212 1.329,2.414 2.09,3.573l-0.836,0.549z"/>
     </g>
    </g>
   </g>
   <g id="svg_51">
    <g id="svg_52">
     <g id="svg_53">
      <path fill="#def0ac" id="svg_54" d="m17.475,58.014l-0.916,-0.4c2.466,-5.632 0.945,-24.419 0.93,-24.608l-0.053,-0.638l0.633,0.104c0.017,0.003 1.692,0.269 4.887,-0.005c0.47,-0.04 1.145,-0.117 1.981,-0.213c5.224,-0.597 16.082,-1.833 23.997,0.212c0.447,0.021 2.211,0.315 3.082,3.646c0.31,1.18 0.904,3.075 1.984,5.411l-0.908,0.42c-1.11,-2.402 -1.724,-4.359 -2.043,-5.577c-0.762,-2.91 -2.128,-2.912 -2.162,-2.901l-0.068,0.002l-0.079,-0.018c-7.742,-2.02 -18.514,-0.793 -23.689,-0.2c-0.85,0.097 -1.533,0.174 -2.009,0.215c-2.221,0.188 -3.728,0.131 -4.509,0.065c0.249,3.353 1.28,19.144 -1.058,24.485z"/>
     </g>
    </g>
   </g>
   <g id="svg_55">
    <g id="svg_56">
     <g id="svg_57">
      <path fill="#def0ac" id="svg_58" d="m20.014,78.911c-0.153,-0.322 -0.303,-0.624 -0.447,-0.916c-1.659,-3.357 -2.661,-5.384 -0.826,-20.243c1.264,-10.231 0.577,-17.85 -0.056,-21.92c0.344,5.766 0.768,17.668 -1.21,22.182c-4.691,10.713 -2.248,20.511 -2.223,20.608l-0.969,0.25c-0.025,-0.101 -2.554,-10.233 2.275,-21.259c2.34,-5.342 1.097,-22.442 0.948,-24.375l-0.023,-0.291l0.689,-0.462l0.182,0.021c0.09,0.011 0.212,0.021 0.349,0.029l0.371,0.025l0.082,0.363c0.556,2.446 2.24,11.477 0.576,24.951c-1.799,14.562 -0.847,16.487 0.73,19.678c0.146,0.295 0.298,0.602 0.453,0.929l-0.901,0.43z"/>
     </g>
    </g>
   </g>
   <g id="svg_59">
    <g id="svg_60">
     <g id="svg_61">
      <g id="svg_62">
       <g id="svg_63">
        <path fill="#def0ac" id="svg_64" d="m76.958,74.175c-1.124,-2.545 -11.366,-9.513 -17.24,-13.229c-12.222,-8.077 -15.413,-20.419 -16.461,-24.475l-0.095,-0.364l0.967,-0.254l0.096,0.368c1.024,3.963 4.144,16.024 15.98,23.851c2.731,1.728 16.195,10.366 17.667,13.699l-0.914,0.404z"/>
       </g>
      </g>
     </g>
     <g id="svg_65">
      <g id="svg_66">
       <g id="svg_67">
        <path fill="#def0ac" id="svg_68" d="m19.239,38c-0.01,0 -0.019,0 -0.026,0l0.038,-1.1c0.287,0 2.963,-0.378 4.4,-0.554c0.64,-0.078 1.16,-0.168 1.394,-0.194c3.542,-0.404 8.238,-0.886 13.153,-0.921c3.717,-0.026 5.184,0.404 5.806,0.589l0.146,0.04l-0.264,0.963l-0.17,-0.051c-0.578,-0.173 -1.926,-0.571 -5.511,-0.554c-4.869,0.035 -9.53,0.5 -13.048,0.902c-0.232,0.026 -0.749,0.19 -1.385,0.267c-2.805,0.345 -4.228,0.613 -4.533,0.613z"/>
       </g>
      </g>
     </g>
    </g>
    <g id="svg_69">
     <g id="svg_70">
      <g id="svg_71">
       <path fill="#def0ac" id="svg_72" d="m44.028,80.154c-2.816,-15.125 -15.008,-17.858 -15.131,-17.883l-9.859,-2.199l0.217,-0.977l9.854,2.198c0.128,0.027 3.295,0.715 6.858,3.367c3.28,2.44 7.512,7.078 9.044,15.311l-0.983,0.183z"/>
      </g>
     </g>
    </g>
   </g>
   <g id="svg_73">
    <g id="svg_74">
     <g id="svg_75">
      <path fill="#def0ac" id="svg_76" d="m83.567,92.113l-0.056,-1.462c-0.344,0.008 -0.688,0.014 -1.032,0.018l0.011,1.438l-0.508,0.006c-1.072,-0.009 -2.109,-0.039 -3.114,-0.086l-0.497,0.184l0.056,-1.211c-0.006,0 -0.012,0 -0.019,0l-0.072,1.138l-0.505,-0.06c-1.083,-0.062 -2.123,-0.193 -3.114,-0.287l-0.5,-0.074l0.144,-1.44c-0.345,-0.038 -0.69,-0.086 -1.035,-0.129l-0.19,1.43l-0.49,-0.061c-1.11,-0.134 -2.146,-0.281 -3.103,-0.433l-0.503,-0.08l0.267,-1.488c-0.008,-0.002 -0.015,-0.003 -0.022,-0.005l-0.289,1.484l-0.483,-0.085c-1.073,-0.187 -2.111,-0.39 -3.084,-0.604l-0.5,-0.11l0.379,-1.553c-0.339,-0.085 -0.678,-0.172 -1.016,-0.262l-0.432,1.56l-0.477,-0.125c-0.776,-0.202 -1.193,-0.334 -1.193,-0.334c-0.257,-0.08 -0.679,-0.217 -0.935,-0.303c-0.067,-0.02 -7.896,-2.396 -15.286,-3.615l-0.093,3.794c-0.012,0.528 -0.464,0.959 -1.008,0.959l-7.38,-0.065l-3.488,-0.091l0,-1.161l-1,0l0,1.135l-4,-0.104l0,0.001l-4,-0.104l0,-0.928l-1,0l0,0.902l-10.364,-0.287c-0.265,-0.007 -0.421,-0.124 -0.506,-0.222c-0.19,-0.22 -0.159,-0.483 -0.141,-0.642c0.005,-0.04 0.011,-0.085 0.011,-0.133l0,-9.7c0,-0.552 0.389,-0.967 0.904,-0.967l25.562,0.959c0.099,0.004 13.345,1.479 20.474,3.775c8.244,2.655 16.202,2.809 26.423,2.644c7.665,-0.125 18.768,-3.854 24.747,-8.312l0.421,-0.314l2.981,4.443c0.284,0.425 0.269,1.24 -0.155,1.588c-0.06,0.044 -3.614,2.608 -8.319,4.765l-0.482,0.222l-0.221,-0.57l0.215,0.58l-0.436,0.188c-0.829,0.359 -1.758,0.724 -2.84,1.114l-0.487,0.175l-0.452,-1.411c-0.317,0.097 -0.635,0.19 -0.953,0.281l0.422,1.461l-0.466,0.146c-0.976,0.308 -1.973,0.588 -2.962,0.835l-0.489,0.09l-0.379,-1.61c-0.001,0 -0.001,0 -0.002,0l0.356,1.62l-0.487,0.126c-0.929,0.211 -1.923,0.41 -3.038,0.593l-0.485,0.084l-0.287,-1.608c-0.334,0.054 -0.668,0.105 -1.003,0.154l0.236,1.619l-0.509,0.062c-0.841,0.103 -1.697,0.193 -2.578,0.256l-0.999,-0.152l-0.153,-1.754c-0.005,0 -0.009,0 -0.013,0l0.13,1.757l-0.516,0.135c-1.058,0.057 -2.092,0.143 -3.104,0.159l-0.489,0.062zm-4.157,-1.063c0.676,0.027 1.366,0.21 2.072,0.221l-0.007,-1.271l0.501,0c0.666,0 1.334,-0.177 2,-0.199l0.498,-0.099l0.056,1.436c0.677,-0.015 1.365,-0.058 2.063,-0.09l-0.126,-1.524l0.5,-0.044c0.331,-0.026 0.663,-0.056 0.993,-0.088l0.496,-0.047l0.155,1.565l0.027,-0.002c0.688,-0.049 1.359,-0.114 2.021,-0.191l-0.231,-1.599l0.498,-0.068c0.656,-0.091 1.311,-0.19 1.962,-0.3l0.49,-0.082l0.284,1.61c0.714,-0.123 1.376,-0.25 2.005,-0.384l-0.355,-1.594l0.49,-0.106c0.322,-0.07 0.645,-0.141 0.965,-0.215l0.484,-0.111l0.372,1.558c0.651,-0.17 1.303,-0.354 1.948,-0.55l-0.427,-1.489l0.484,-0.135c0.631,-0.176 1.259,-0.36 1.882,-0.556l0.477,-0.148l0.435,1.366c0.68,-0.251 1.294,-0.491 1.86,-0.728l-0.462,-1.255l0.472,-0.171c0.307,-0.11 0.61,-0.224 0.915,-0.339l0.467,-0.177l0.43,1.121c4.373,-2.064 7.609,-4.399 7.643,-4.423l0,0c-0.034,0 -0.037,-0.184 -0.069,-0.249l-2.394,-3.566c-6.211,4.428 -17.238,8.077 -24.904,8.202c-10.322,0.163 -18.364,0.008 -26.745,-2.692c-6.641,-2.14 -19.46,-3.675 -20.213,-3.728l-25.417,-0.955l-0.005,9.664c0,0.002 0,0.005 0,0.007l9,0.25l0,-0.875l3,0l0,0.953l2,0.052l0,-1.005l2,0l0,1.057l2,0.052l0,-1.109l3,0l0,1.187l2,0.052l0,-1.239l2,0l0,1.281l5.857,0.036l0.14,-4.921l0.563,0.089c7.62,1.199 15.916,3.717 15.998,3.742c0.264,0.089 0.678,0.222 0.93,0.302c0.007,0.001 0.237,0.074 0.67,0.192l0.433,-1.566l0.481,0.132c0.648,0.178 1.301,0.347 1.954,0.504l0.487,0.118l-0.372,1.528c0.662,0.141 1.351,0.275 2.059,0.403l0.292,-1.499l0.491,0.095c0.329,0.064 0.66,0.126 0.99,0.186l0.492,0.088l-0.263,1.465c0.655,0.1 1.346,0.197 2.07,0.289l0.191,-1.442l0.495,0.065c0.665,0.089 1.332,0.167 1.999,0.235l0.497,0.05l-0.144,1.417c0.671,0.06 1.363,0.112 2.075,0.157l0.077,-1.411l0.499,0.027c0.335,0.019 0.668,0.036 1.003,0.049l0.499,0.021l-0.053,1.418z"/>
     </g>
    </g>
   </g>
   <g id="svg_77">
    <g id="svg_78">
     <g id="svg_79">
      <g id="svg_80">
       <path fill="#def0ac" id="svg_81" d="m67.33,62.755c-0.555,0 -1.058,-0.325 -1.282,-0.83c-0.313,-0.705 0.006,-1.535 0.71,-1.85l4.034,-1.795c0.69,-0.308 1.545,0.028 1.849,0.711c0.151,0.341 0.161,0.721 0.026,1.07c-0.134,0.351 -0.396,0.627 -0.736,0.778l-4.033,1.795c-0.18,0.081 -0.372,0.121 -0.568,0.121zm4.027,-3.595c-0.055,0 -0.108,0.012 -0.159,0.034l-4.033,1.795c-0.201,0.09 -0.293,0.327 -0.203,0.529c0.085,0.193 0.332,0.287 0.529,0.202l4.033,-1.795c0.097,-0.043 0.171,-0.122 0.209,-0.222c0.039,-0.101 0.036,-0.21 -0.007,-0.307c-0.064,-0.143 -0.208,-0.236 -0.369,-0.236z"/>
      </g>
     </g>
    </g>
    <g id="svg_82">
     <g id="svg_83">
      <g id="svg_84">
       <path fill="#def0ac" id="svg_85" d="m62.076,59.439c-0.555,0 -1.058,-0.325 -1.282,-0.83c-0.313,-0.705 0.006,-1.535 0.71,-1.85l5.298,-2.357c0.69,-0.307 1.546,0.028 1.849,0.711c0.151,0.341 0.161,0.721 0.026,1.07c-0.134,0.351 -0.396,0.627 -0.736,0.778l-5.298,2.357c-0.18,0.081 -0.371,0.121 -0.567,0.121zm5.291,-4.157c-0.055,0 -0.108,0.012 -0.159,0.034l-5.297,2.357c-0.201,0.09 -0.293,0.327 -0.203,0.529c0.085,0.193 0.33,0.288 0.528,0.202l5.298,-2.357c0.097,-0.043 0.171,-0.122 0.209,-0.222c0.039,-0.101 0.036,-0.21 -0.007,-0.307c-0.064,-0.143 -0.209,-0.236 -0.369,-0.236z"/>
      </g>
     </g>
    </g>
    <g id="svg_86">
     <g id="svg_87">
      <g id="svg_88">
       <path fill="#def0ac" id="svg_89" d="m57.509,55.803c-0.553,0 -1.057,-0.326 -1.281,-0.83c-0.314,-0.706 0.004,-1.535 0.71,-1.85l6.588,-2.933c0.691,-0.307 1.545,0.029 1.849,0.711c0.151,0.34 0.161,0.72 0.027,1.069c-0.134,0.351 -0.396,0.627 -0.737,0.779l-6.588,2.932c-0.181,0.081 -0.372,0.122 -0.568,0.122zm6.582,-4.733c-0.055,0 -0.108,0.012 -0.159,0.034l-6.588,2.933c-0.198,0.088 -0.291,0.33 -0.203,0.528c0.087,0.193 0.332,0.292 0.528,0.202l6.589,-2.932c0.097,-0.043 0.171,-0.122 0.21,-0.223c0.038,-0.101 0.036,-0.208 -0.007,-0.305c-0.065,-0.144 -0.21,-0.237 -0.37,-0.237z"/>
      </g>
     </g>
    </g>
    <g id="svg_90">
     <g id="svg_91">
      <g id="svg_92">
       <path fill="#def0ac" id="svg_93" d="m53.315,50.912c-0.555,0 -1.058,-0.326 -1.282,-0.831c-0.151,-0.34 -0.161,-0.72 -0.027,-1.069c0.134,-0.351 0.396,-0.627 0.737,-0.779l7.956,-3.541c0.687,-0.306 1.544,0.027 1.85,0.71c0.151,0.342 0.161,0.722 0.026,1.071c-0.135,0.351 -0.396,0.627 -0.737,0.778l-7.956,3.541c-0.18,0.08 -0.37,0.12 -0.567,0.12zm7.952,-5.341c-0.056,0 -0.11,0.012 -0.161,0.034l-7.956,3.541c-0.097,0.043 -0.171,0.122 -0.21,0.223c-0.038,0.101 -0.036,0.208 0.007,0.305c0.086,0.195 0.332,0.29 0.529,0.204l7.956,-3.541c0.097,-0.043 0.172,-0.122 0.21,-0.223c0.039,-0.101 0.036,-0.209 -0.007,-0.306c-0.065,-0.143 -0.209,-0.237 -0.368,-0.237z"/>
      </g>
     </g>
    </g>
    <g id="svg_94">
     <g id="svg_95">
      <g id="svg_96">
       <path fill="#def0ac" id="svg_97" d="m50.648,45.571c-0.555,0 -1.059,-0.326 -1.283,-0.831c-0.151,-0.341 -0.161,-0.721 -0.026,-1.07c0.135,-0.351 0.396,-0.627 0.737,-0.778l7.956,-3.541c0.688,-0.307 1.544,0.026 1.849,0.71c0.313,0.706 -0.005,1.536 -0.71,1.85l-7.957,3.541c-0.18,0.079 -0.37,0.119 -0.566,0.119zm7.951,-5.341c-0.056,0 -0.109,0.012 -0.16,0.034l-7.956,3.541c-0.097,0.043 -0.172,0.122 -0.21,0.223c-0.039,0.101 -0.036,0.209 0.007,0.306c0.086,0.193 0.328,0.292 0.528,0.203l7.957,-3.541c0.201,-0.09 0.292,-0.327 0.202,-0.529c-0.064,-0.144 -0.208,-0.237 -0.368,-0.237z"/>
      </g>
     </g>
    </g>
   </g>
  </g>
 </g>
</svg>