<svg width="512" height="512" xmlns="http://www.w3.org/2000/svg">

 <g>
  <title>background</title>
  <rect fill="none" id="canvas_background" height="402" width="582" y="-1" x="-1"/>
 </g>
 <g>
  <title>Layer 1</title>
  <g id="svg_1">
   <g id="svg_2">
    <path fill="#def0ac" id="svg_3" d="m469.779,111.165l-34.739,0l0,-17.637c0,-4.427 -3.589,-8.017 -8.017,-8.017l-51.307,0c-4.427,0 -8.017,3.589 -8.017,8.017l0,17.637l-21.536,0l-31.897,-55.819c-1.427,-2.498 -4.083,-4.039 -6.96,-4.039l-102.613,0c-2.876,0 -5.533,1.541 -6.961,4.039l-31.896,55.819l-21.536,0l0,-17.637c0,-4.427 -3.589,-8.017 -8.017,-8.017l-51.306,0c-4.427,0 -8.017,3.589 -8.017,8.017l0,17.637l-34.739,0c-23.28,0 -42.221,18.941 -42.221,42.221l0,265.086c0,23.281 18.941,42.221 42.221,42.221l51.307,0c4.427,0 8.017,-3.589 8.017,-8.017c0,-4.427 -3.589,-8.017 -8.017,-8.017l-51.307,0c-14.44,0 -26.188,-11.748 -26.188,-26.188l0,-265.085c0,-14.44 11.748,-26.188 26.188,-26.188l427.557,0c14.44,0 26.188,11.748 26.188,26.188l0,51.307c0,4.427 3.589,8.017 8.017,8.017c4.427,0 8.017,-3.589 8.017,-8.017l0,-51.307c0,-23.28 -18.941,-42.221 -42.221,-42.221zm-341.512,0l-35.273,0l0,-9.62l35.273,0l0,9.62zm89.397,0l9.086,-18.171l58.499,0l9.086,18.171l-76.671,0zm94.597,0l-14.886,-29.773c-1.358,-2.716 -4.133,-4.432 -7.17,-4.432l-68.409,0c-3.037,0 -5.813,1.716 -7.17,4.432l-14.886,29.773l-15.436,0l25.043,-43.825l93.309,0l25.043,43.825l-15.438,0zm106.745,0l-35.273,0l0,-9.62l35.273,0l0,9.62z"/>
   </g>
  </g>
  <g id="svg_4">
   <g id="svg_5">
    <path fill="#def0ac" id="svg_6" d="m503.983,239.432c-4.427,0 -8.017,3.589 -8.017,8.017l0,171.023c0,14.44 -11.748,26.188 -26.188,26.188l-333.494,0c-4.427,0 -8.017,3.589 -8.017,8.017c0,4.427 3.589,8.017 8.017,8.017l333.495,0c23.281,0 42.221,-18.941 42.221,-42.221l0,-171.024c0,-4.428 -3.589,-8.017 -8.017,-8.017z"/>
   </g>
  </g>
  <g id="svg_7">
   <g id="svg_8">
    <path fill="#def0ac" id="svg_9" d="m358.614,239.432l-60.392,0l0,-60.392c0,-4.427 -3.589,-8.017 -8.017,-8.017l-68.409,0c-4.427,0 -8.017,3.589 -8.017,8.017l0,60.392l-60.392,0c-4.427,0 -8.017,3.589 -8.017,8.017l0,68.409c0,4.427 3.589,8.017 8.017,8.017l60.392,0l0,60.392c0,4.427 3.589,8.017 8.017,8.017l68.409,0c4.427,0 8.017,-3.589 8.017,-8.017l0,-60.392l60.392,0c4.427,0 8.017,-3.589 8.017,-8.017l0,-68.409c-0.001,-4.428 -3.59,-8.017 -8.017,-8.017zm-8.017,68.409l-60.393,0c-4.427,0 -8.017,3.589 -8.017,8.017l0,60.393l-52.376,0l0,-60.393c0,-4.427 -3.589,-8.017 -8.017,-8.017l-60.392,0l0,-52.376l60.392,0c4.427,0 8.017,-3.589 8.017,-8.017l0,-60.392l52.376,0l0,60.392c0,4.427 3.589,8.017 8.017,8.017l60.393,0l0,52.376z"/>
   </g>
  </g>
  <g id="svg_10"/>
  <g id="svg_11"/>
  <g id="svg_12"/>
  <g id="svg_13"/>
  <g id="svg_14"/>
  <g id="svg_15"/>
  <g id="svg_16"/>
  <g id="svg_17"/>
  <g id="svg_18"/>
  <g id="svg_19"/>
  <g id="svg_20"/>
  <g id="svg_21"/>
  <g id="svg_22"/>
  <g id="svg_23"/>
  <g id="svg_24"/>
 </g>
</svg>