<svg width="435.607" height="435.607" xmlns="http://www.w3.org/2000/svg">

 <g>
  <title>background</title>
  <rect fill="none" id="canvas_background" height="402" width="582" y="-1" x="-1"/>
 </g>
 <g>
  <title>Layer 1</title>
  <g id="svg_1">
   <g id="svg_2">
    <g id="svg_3">
     <g id="svg_4">
      <path fill="#def0ac" id="svg_5" d="m179.148,151.41c-13.763,0 -24.96,-11.312 -24.96,-25.217c0,-13.905 11.197,-25.217 24.96,-25.217c13.762,0 24.957,11.313 24.957,25.217c0,13.905 -11.196,25.217 -24.957,25.217zm0,-40.434c-8.249,0 -14.96,6.827 -14.96,15.217c0,8.391 6.711,15.217 14.96,15.217c8.247,0 14.957,-6.826 14.957,-15.217c0,-8.39 -6.71,-15.217 -14.957,-15.217z"/>
     </g>
     <g id="svg_6">
      <path fill="#def0ac" id="svg_7" d="m256.46,151.41c-13.763,0 -24.959,-11.312 -24.959,-25.217c0,-13.905 11.196,-25.217 24.959,-25.217c13.763,0 24.959,11.313 24.959,25.217c0,13.905 -11.196,25.217 -24.959,25.217zm0,-40.434c-8.248,0 -14.959,6.827 -14.959,15.217c0,8.391 6.711,15.217 14.959,15.217c8.248,0 14.959,-6.826 14.959,-15.217c0,-8.39 -6.711,-15.217 -14.959,-15.217z"/>
     </g>
    </g>
    <g id="svg_8">
     <g id="svg_9">
      <g id="svg_10">
       <path fill="#def0ac" id="svg_11" d="m169.033,78.998c-1.319,0 -2.609,-0.53 -3.54,-1.46c-0.93,-0.93 -1.46,-2.22 -1.46,-3.54c0,-1.31 0.53,-2.6 1.46,-3.53c0.931,-0.93 2.221,-1.47 3.54,-1.47c1.311,0 2.601,0.54 3.53,1.47c0.93,0.93 1.47,2.22 1.47,3.53c0,1.32 -0.54,2.61 -1.47,3.54c-0.929,0.93 -2.219,1.46 -3.53,1.46z"/>
      </g>
      <g id="svg_12">
       <path fill="#def0ac" id="svg_13" d="m169.033,61.928c-1.319,0 -2.609,-0.54 -3.54,-1.47c-0.93,-0.93 -1.46,-2.22 -1.46,-3.53c0,-1.32 0.53,-2.61 1.46,-3.54c0.931,-0.93 2.221,-1.46 3.54,-1.46c1.311,0 2.601,0.53 3.53,1.46c0.93,0.94 1.47,2.23 1.47,3.54s-0.54,2.6 -1.47,3.53c-0.929,0.93 -2.219,1.47 -3.53,1.47z"/>
      </g>
      <g id="svg_14">
       <path fill="#def0ac" id="svg_15" d="m169.033,44.848c-1.319,0 -2.609,-0.53 -3.54,-1.46c-0.93,-0.93 -1.46,-2.22 -1.46,-3.54c0,-1.32 0.53,-2.6 1.46,-3.53c0.931,-0.93 2.221,-1.47 3.54,-1.47c1.311,0 2.601,0.54 3.53,1.47c0.93,0.93 1.47,2.22 1.47,3.53c0,1.32 -0.54,2.6 -1.47,3.54c-0.929,0.93 -2.219,1.46 -3.53,1.46z"/>
      </g>
     </g>
     <g id="svg_16">
      <g id="svg_17">
       <path fill="#def0ac" id="svg_18" d="m266.573,78.998c-1.31,0 -2.6,-0.53 -3.529,-1.46c-0.931,-0.93 -1.471,-2.22 -1.471,-3.53c0,-1.32 0.54,-2.61 1.471,-3.54c0.93,-0.93 2.22,-1.46 3.529,-1.46c1.32,0 2.61,0.53 3.54,1.46c0.931,0.93 1.46,2.22 1.46,3.54c0,1.31 -0.529,2.6 -1.46,3.53c-0.929,0.93 -2.219,1.46 -3.54,1.46z"/>
      </g>
      <g id="svg_19">
       <path fill="#def0ac" id="svg_20" d="m266.573,61.928c-1.31,0 -2.6,-0.54 -3.529,-1.47c-0.931,-0.93 -1.471,-2.21 -1.471,-3.53c0,-1.32 0.54,-2.61 1.471,-3.54c0.93,-0.93 2.22,-1.46 3.529,-1.46c1.32,0 2.61,0.53 3.54,1.46c0.931,0.93 1.46,2.22 1.46,3.54c0,1.32 -0.529,2.6 -1.46,3.53c-0.929,0.93 -2.219,1.47 -3.54,1.47z"/>
      </g>
      <g id="svg_21">
       <path fill="#def0ac" id="svg_22" d="m266.573,44.848c-1.31,0 -2.6,-0.53 -3.529,-1.46c-0.931,-0.93 -1.471,-2.22 -1.471,-3.54c0,-1.32 0.54,-2.61 1.471,-3.54c0.93,-0.93 2.22,-1.46 3.529,-1.46c1.32,0 2.61,0.53 3.54,1.46c0.931,0.93 1.46,2.22 1.46,3.54c0,1.32 -0.529,2.61 -1.46,3.54c-0.929,0.93 -2.219,1.46 -3.54,1.46z"/>
      </g>
     </g>
    </g>
    <g id="svg_23">
     <g id="svg_24">
      <path fill="#def0ac" id="svg_25" d="m234.764,78.768c-1.32,0 -2.61,-0.53 -3.54,-1.46s-1.46,-2.22 -1.46,-3.54c0,-1.32 0.53,-2.6 1.46,-3.53c0.93,-0.93 2.22,-1.47 3.54,-1.47c1.31,0 2.6,0.54 3.53,1.47c0.939,0.93 1.47,2.21 1.47,3.53c0,1.32 -0.53,2.61 -1.47,3.54c-0.93,0.93 -2.221,1.46 -3.53,1.46z"/>
     </g>
     <g id="svg_26">
      <path fill="#def0ac" id="svg_27" d="m200.844,78.768c-1.32,0 -2.6,-0.53 -3.54,-1.46c-0.931,-0.93 -1.46,-2.22 -1.46,-3.54c0,-1.32 0.529,-2.6 1.46,-3.53c0.939,-0.93 2.22,-1.47 3.54,-1.47c1.31,0 2.6,0.54 3.54,1.47c0.93,0.93 1.46,2.22 1.46,3.53c0,1.32 -0.53,2.61 -1.46,3.54c-0.94,0.93 -2.23,1.46 -3.54,1.46z"/>
     </g>
    </g>
    <g id="svg_28">
     <g id="svg_29">
      <g id="svg_30">
       <g id="svg_31">
        <path fill="#def0ac" id="svg_32" d="m158.774,187.898c-1.32,0 -2.6,-0.54 -3.53,-1.47c-0.93,-0.93 -1.47,-2.21 -1.47,-3.53c0,-1.32 0.54,-2.61 1.47,-3.54c0.931,-0.93 2.21,-1.46 3.53,-1.46s2.61,0.53 3.54,1.46c0.93,0.93 1.46,2.22 1.46,3.54c0,1.31 -0.53,2.6 -1.46,3.53c-0.93,0.93 -2.22,1.47 -3.54,1.47z"/>
       </g>
       <g id="svg_33">
        <path fill="#def0ac" id="svg_34" d="m146.694,203.338c-1.32,0 -2.609,-0.54 -3.54,-1.47c-0.93,-0.93 -1.46,-2.22 -1.46,-3.53c0,-1.32 0.53,-2.61 1.46,-3.54c0.931,-0.93 2.22,-1.46 3.54,-1.46c1.311,0 2.601,0.53 3.53,1.46c0.93,0.93 1.47,2.22 1.47,3.54c0,1.31 -0.54,2.6 -1.47,3.53c-0.93,0.93 -2.22,1.47 -3.53,1.47z"/>
       </g>
       <g id="svg_35">
        <path fill="#def0ac" id="svg_36" d="m135.934,186.258c-1.32,0 -2.61,-0.54 -3.54,-1.47c-0.93,-0.93 -1.46,-2.21 -1.46,-3.53c0,-1.32 0.53,-2.61 1.46,-3.54c0.93,-0.93 2.22,-1.46 3.54,-1.46c1.31,0 2.6,0.53 3.53,1.46c0.93,0.93 1.47,2.22 1.47,3.54c0,1.32 -0.54,2.6 -1.47,3.53c-0.931,0.93 -2.221,1.47 -3.53,1.47z"/>
       </g>
      </g>
      <g id="svg_37">
       <g id="svg_38">
        <path fill="#def0ac" id="svg_39" d="m206.104,213.628c-1.32,0 -2.6,-0.53 -3.53,-1.47c-0.93,-0.92 -1.47,-2.21 -1.47,-3.53c0,-1.32 0.54,-2.61 1.47,-3.54c0.931,-0.93 2.21,-1.46 3.53,-1.46s2.61,0.53 3.54,1.46c0.93,0.94 1.46,2.23 1.46,3.54s-0.53,2.6 -1.46,3.53c-0.93,0.94 -2.22,1.47 -3.54,1.47z"/>
       </g>
       <g id="svg_40">
        <path fill="#def0ac" id="svg_41" d="m185.993,219.478c-1.319,0 -2.609,-0.54 -3.54,-1.47c-0.93,-0.93 -1.47,-2.22 -1.47,-3.53c0,-1.32 0.54,-2.61 1.47,-3.54c0.931,-0.93 2.221,-1.46 3.54,-1.46c1.311,0 2.6,0.53 3.53,1.46c0.93,0.93 1.47,2.22 1.47,3.54c0,1.31 -0.54,2.6 -1.47,3.53c-0.929,0.93 -2.219,1.47 -3.53,1.47z"/>
       </g>
       <g id="svg_42">
        <path fill="#def0ac" id="svg_43" d="m174.993,234.918c-1.319,0 -2.609,-0.54 -3.54,-1.47c-0.93,-0.93 -1.46,-2.22 -1.46,-3.54c0,-1.31 0.53,-2.6 1.46,-3.53c0.931,-0.93 2.221,-1.46 3.54,-1.46c1.311,0 2.6,0.53 3.54,1.46c0.931,0.93 1.46,2.22 1.46,3.53c0,1.32 -0.529,2.61 -1.46,3.54c-0.939,0.93 -2.229,1.47 -3.54,1.47z"/>
       </g>
       <g id="svg_44">
        <path fill="#def0ac" id="svg_45" d="m206.104,236.548c-1.31,0 -2.6,-0.53 -3.53,-1.46c-0.93,-0.93 -1.47,-2.22 -1.47,-3.54c0,-1.31 0.54,-2.6 1.47,-3.53c0.931,-0.93 2.21,-1.47 3.53,-1.47s2.61,0.54 3.54,1.47c0.93,0.93 1.46,2.22 1.46,3.53c0,1.32 -0.53,2.61 -1.46,3.54c-0.93,0.93 -2.22,1.46 -3.54,1.46z"/>
       </g>
       <g id="svg_46">
        <path fill="#def0ac" id="svg_47" d="m206.104,259.478c-1.31,0 -2.6,-0.54 -3.53,-1.47c-0.93,-0.93 -1.47,-2.21 -1.47,-3.53c0,-1.32 0.54,-2.61 1.47,-3.54c0.931,-0.93 2.221,-1.46 3.53,-1.46c1.32,0 2.61,0.53 3.54,1.46c0.93,0.93 1.46,2.22 1.46,3.54c0,1.31 -0.53,2.6 -1.46,3.53c-0.93,0.93 -2.22,1.47 -3.54,1.47z"/>
       </g>
      </g>
     </g>
     <g id="svg_48">
      <g id="svg_49">
       <g id="svg_50">
        <path fill="#def0ac" id="svg_51" d="m276.834,187.898c-1.32,0 -2.61,-0.54 -3.54,-1.47c-0.931,-0.93 -1.46,-2.22 -1.46,-3.53c0,-1.32 0.529,-2.61 1.46,-3.54c0.93,-0.93 2.22,-1.46 3.54,-1.46c1.309,0 2.6,0.53 3.529,1.46c0.931,0.93 1.471,2.22 1.471,3.54c0,1.31 -0.54,2.6 -1.471,3.53c-0.929,0.93 -2.219,1.47 -3.529,1.47z"/>
       </g>
       <g id="svg_52">
        <path fill="#def0ac" id="svg_53" d="m288.913,203.338c-1.31,0 -2.6,-0.54 -3.529,-1.47c-0.931,-0.93 -1.471,-2.22 -1.471,-3.53c0,-1.32 0.54,-2.61 1.471,-3.54c0.93,-0.93 2.21,-1.46 3.529,-1.46c1.32,0 2.61,0.53 3.54,1.46c0.931,0.93 1.46,2.22 1.46,3.54c0,1.31 -0.529,2.6 -1.46,3.53c-0.939,0.93 -2.219,1.47 -3.54,1.47z"/>
       </g>
       <g id="svg_54">
        <path fill="#def0ac" id="svg_55" d="m299.674,186.258c-1.31,0 -2.601,-0.54 -3.53,-1.47c-0.93,-0.92 -1.47,-2.21 -1.47,-3.53c0,-1.32 0.54,-2.61 1.47,-3.54c0.93,-0.93 2.22,-1.46 3.53,-1.46c1.319,0 2.609,0.53 3.54,1.46c0.93,0.93 1.46,2.22 1.46,3.54c0,1.309 -0.53,2.6 -1.46,3.53c-0.931,0.93 -2.221,1.47 -3.54,1.47z"/>
       </g>
      </g>
      <g id="svg_56">
       <g id="svg_57">
        <path fill="#def0ac" id="svg_58" d="m229.493,213.628c-1.31,0 -2.6,-0.54 -3.529,-1.47c-0.931,-0.92 -1.471,-2.21 -1.471,-3.53c0,-1.32 0.54,-2.61 1.471,-3.54c0.93,-0.93 2.22,-1.46 3.529,-1.46c1.32,0 2.61,0.53 3.54,1.46c0.931,0.93 1.46,2.22 1.46,3.54c0,1.32 -0.529,2.6 -1.46,3.53c-0.929,0.93 -2.219,1.47 -3.54,1.47z"/>
       </g>
       <g id="svg_59">
        <path fill="#def0ac" id="svg_60" d="m249.614,219.478c-1.319,0 -2.6,-0.54 -3.529,-1.47c-0.931,-0.93 -1.471,-2.22 -1.471,-3.53c0,-1.32 0.54,-2.61 1.471,-3.54c0.93,-0.93 2.22,-1.46 3.529,-1.46c1.32,0 2.601,0.53 3.54,1.46c0.931,0.93 1.46,2.22 1.46,3.54c0,1.31 -0.529,2.6 -1.46,3.53c-0.94,0.93 -2.22,1.47 -3.54,1.47z"/>
       </g>
       <g id="svg_61">
        <path fill="#def0ac" id="svg_62" d="m260.614,234.918c-1.319,0 -2.609,-0.54 -3.54,-1.47c-0.93,-0.93 -1.46,-2.22 -1.46,-3.53c0,-1.32 0.53,-2.61 1.46,-3.54c0.931,-0.93 2.221,-1.46 3.54,-1.46c1.31,0 2.601,0.53 3.53,1.46c0.93,0.93 1.47,2.22 1.47,3.54c0,1.31 -0.54,2.6 -1.47,3.53c-0.93,0.93 -2.22,1.47 -3.53,1.47z"/>
       </g>
       <g id="svg_63">
        <path fill="#def0ac" id="svg_64" d="m229.493,236.548c-1.31,0 -2.6,-0.53 -3.529,-1.46c-0.931,-0.93 -1.471,-2.22 -1.471,-3.54c0,-1.31 0.54,-2.6 1.471,-3.53c0.93,-0.93 2.22,-1.47 3.529,-1.47c1.32,0 2.61,0.54 3.54,1.47c0.931,0.93 1.46,2.22 1.46,3.53c0,1.32 -0.529,2.61 -1.46,3.54c-0.929,0.93 -2.219,1.46 -3.54,1.46z"/>
       </g>
       <g id="svg_65">
        <path fill="#def0ac" id="svg_66" d="m229.493,259.478c-1.31,0 -2.6,-0.54 -3.529,-1.47c-0.931,-0.92 -1.471,-2.21 -1.471,-3.53c0,-1.32 0.54,-2.61 1.471,-3.54c0.93,-0.93 2.22,-1.46 3.529,-1.46c1.32,0 2.61,0.53 3.54,1.46c0.931,0.93 1.46,2.22 1.46,3.54c0,1.31 -0.529,2.6 -1.46,3.53c-0.929,0.93 -2.219,1.47 -3.54,1.47z"/>
       </g>
      </g>
     </g>
    </g>
    <path fill="#def0ac" id="svg_67" d="m254.636,85.498c-0.612,-2.148 -2.575,-3.629 -4.809,-3.629l-64.047,0c-2.233,0 -4.195,1.481 -4.809,3.629c-0.612,2.148 0.273,4.441 2.171,5.619l32.023,19.883c0.821,0.51 1.732,0.753 2.633,0.752c0.93,0 1.843,-0.268 2.638,-0.76l0.005,0.008l32.024,-19.883c1.898,-1.178 2.783,-3.471 2.171,-5.619zm-36.833,15.369l-14.491,-8.997l28.983,0l-14.492,8.997z"/>
    <g id="svg_68">
     <g id="svg_69">
      <path fill="#def0ac" id="svg_70" d="m217.804,168.918c-1.32,0 -2.61,-0.53 -3.54,-1.46c-0.93,-0.93 -1.46,-2.22 -1.46,-3.54c0,-1.31 0.53,-2.6 1.46,-3.53c0.939,-0.93 2.22,-1.47 3.54,-1.47c1.31,0 2.6,0.54 3.53,1.47c0.939,0.93 1.47,2.22 1.47,3.53c0,1.32 -0.53,2.61 -1.47,3.54c-0.93,0.93 -2.22,1.46 -3.53,1.46z"/>
     </g>
     <path fill="#def0ac" id="svg_71" d="m241.915,157.51l-21.307,-13.864c-0.004,-0.003 -0.009,-0.006 -0.014,-0.009l-0.064,-0.042l-0.004,0.005c-1.606,-1.044 -3.739,-1.119 -5.449,-0.005l-21.385,13.915c-1.408,0.916 -2.262,2.477 -2.273,4.156c-0.039,5.508 1.859,10.326 5.49,13.933c7.164,7.12 17.943,7.46 20.895,7.46c2.951,0 13.73,-0.34 20.895,-7.46c3.631,-3.607 5.529,-8.425 5.49,-13.933c-0.012,-1.68 -0.866,-3.24 -2.274,-4.156zm-10.245,10.975c-3.763,3.763 -10.571,4.573 -13.867,4.573s-10.005,-0.737 -13.845,-4.552c-1.18,-1.172 -1.94,-2.575 -2.299,-4.249l16.145,-10.506l16.145,10.506c-0.357,1.664 -1.111,3.061 -2.279,4.228z"/>
    </g>
   </g>
   <path fill="#def0ac" id="svg_72" d="m394.699,315.658c-12.978,-7.375 -34.33,-14.342 -50.443,-19.007c9.865,-0.311 26.11,2.884 26.227,2.912c2.258,0.557 4.608,-0.522 5.659,-2.602c1.05,-2.08 0.524,-4.609 -1.268,-6.098c-32.416,-26.953 -64.073,-29.863 -76.179,-29.863c-3.564,0 -5.628,0.242 -5.852,0.27c-1.501,0.185 -2.838,1.04 -3.636,2.326c-0.949,1.53 -1.853,3.188 -2.722,4.941c-2.814,-2.818 -6.051,-8.414 -5.219,-18.953c4.613,-4.062 8.977,-8.592 13.043,-13.586c20.124,-24.716 31.207,-58.655 31.207,-95.564c0,-37.26 -11.045,-72.343 -31.101,-98.787c-20.366,-26.857 -47.575,-41.647 -76.613,-41.647c-29.036,0 -56.244,14.79 -76.612,41.646c-20.055,26.444 -31.1,61.527 -31.1,98.787c0,36.909 11.083,70.848 31.206,95.564c4.16,5.109 8.632,9.734 13.362,13.867c0.841,10.512 -2.564,16.036 -5.479,18.786c-0.886,-1.796 -1.809,-3.492 -2.778,-5.055c-0.798,-1.286 -2.135,-2.141 -3.636,-2.326c-0.224,-0.028 -2.288,-0.27 -5.852,-0.27c-12.106,0 -43.764,2.91 -76.181,29.864c-1.791,1.489 -2.315,4.016 -1.268,6.095c1.048,2.08 3.396,3.16 5.656,2.605c0.119,-0.029 13.126,-2.686 26.229,-2.913c-16.113,4.664 -37.466,11.632 -50.443,19.007c-28.559,16.232 -33.171,71.542 -32.01,115.083c0.072,2.708 2.288,4.867 4.998,4.867l407.819,0c2.71,0 4.926,-2.158 4.998,-4.867c1.161,-43.541 -3.449,-98.85 -32.012,-115.082zm-356.509,109.949l-19.4,0c-0.752,-48.549 7.035,-83.11 21.688,-97.179c-2.87,17.112 -6.741,51.571 -2.288,97.179zm276.432,-302.793l-10.66,0l0,-8.494l9.586,0c0.428,2.8 0.783,5.633 1.074,8.494zm-92.572,-112.683l0,10.32l-8.494,0l0,-10.321c1.408,-0.08 2.823,-0.13 4.246,-0.13c1.424,0 2.839,0.05 4.248,0.131zm-99.991,104.189l9.584,0l0,8.494l-10.658,0c0.291,-2.861 0.645,-5.694 1.074,-8.494zm-1.969,26.113c0,-2.558 0.062,-5.097 0.171,-7.619l16.382,0c2.762,0 5,-2.239 5,-5l0,-18.494c0,-2.761 -2.238,-5 -5,-5l-12.74,0c10.483,-48.494 41.523,-85.462 79.653,-92.93l0,14.06c0,2.761 2.238,5 5,5l18.494,0c2.762,0 5,-2.239 5,-5l0,-14.06c38.13,7.468 69.172,44.436 79.654,92.929l-12.742,0c-2.762,0 -5,2.239 -5,5l0,18.494c0,2.761 2.238,5 5,5l16.384,0c0.109,2.522 0.171,5.061 0.171,7.619c0,70.53 -42.008,123.716 -97.715,123.716c-55.705,0.001 -97.712,-53.186 -97.712,-123.715zm44.478,117.106c15.911,10.839 34.118,16.609 53.234,16.609c19.248,0 37.574,-5.846 53.563,-16.828c1.178,11.657 6.9,17.813 11.098,20.803c-0.275,0.768 -0.545,1.547 -0.81,2.339c-6.95,8.472 -31.366,17.31 -63.87,17.31c-32.199,0 -56.567,-8.703 -63.754,-17.088c-0.277,-0.833 -0.56,-1.653 -0.847,-2.46c4.317,-2.931 10.188,-9.017 11.386,-20.685zm-6.74,168.068l-109.594,0c-5.532,-55.49 1.774,-94.917 3.822,-104.437c23.109,-10.848 62.82,-20.488 63.258,-20.594c2.09,-0.504 3.625,-2.288 3.809,-4.431c0.185,-2.143 -1.021,-4.164 -2.994,-5.018c-6.862,-2.973 -15.493,-4.48 -25.651,-4.48c-2.364,0 -4.679,0.081 -6.899,0.218c25.837,-15.444 48.362,-16.098 55.594,-15.825c19.486,35.428 19.046,131.827 18.655,154.567zm8.537,-67.486l45.751,17.686l-3.867,18.567l-41.614,-31.858c-0.085,-1.459 -0.174,-2.923 -0.27,-4.395zm101.402,67.486l-99.926,0c0.17,-8.82 0.346,-27.739 -0.56,-50.003l41.202,31.543c0.885,0.678 1.956,1.03 3.04,1.03c0.586,0 1.176,-0.103 1.742,-0.313c1.61,-0.599 2.801,-1.984 3.151,-3.667l6.199,-29.761l26.089,-47.098l23.159,1.635c-4.679,39.446 -4.377,81.979 -4.096,96.634zm5.396,-106.568l-26.936,-1.901c-1.947,-0.139 -3.784,0.864 -4.726,2.565l-25.888,46.735l-50.063,-19.353c-1.459,-17.649 -3.756,-35.614 -7.326,-51.18c14.1,7.286 36.032,11.867 59.557,11.867c23.6,0 45.544,-4.599 59.615,-11.92c-1.674,7.295 -3.073,15.113 -4.233,23.187zm114.21,106.568l-109.593,0c-0.393,-22.738 -0.838,-119.128 18.656,-154.567c7.237,-0.272 29.758,0.382 55.593,15.825c-2.221,-0.137 -4.535,-0.218 -6.899,-0.218c-10.158,0 -18.788,1.507 -25.651,4.48c-1.974,0.854 -3.179,2.875 -2.994,5.018c0.185,2.143 1.72,3.927 3.81,4.431c0.438,0.105 40.152,9.747 63.261,20.595c2.051,9.5 9.364,48.829 3.817,104.436zm29.445,0l-19.399,0c4.454,-45.613 0.579,-80.067 -2.29,-97.18c14.654,14.069 22.441,48.63 21.689,97.18z"/>
  </g>
  <g id="svg_73"/>
  <g id="svg_74"/>
  <g id="svg_75"/>
  <g id="svg_76"/>
  <g id="svg_77"/>
  <g id="svg_78"/>
  <g id="svg_79"/>
  <g id="svg_80"/>
  <g id="svg_81"/>
  <g id="svg_82"/>
  <g id="svg_83"/>
  <g id="svg_84"/>
  <g id="svg_85"/>
  <g id="svg_86"/>
  <g id="svg_87"/>
 </g>
</svg>