<svg width="512" height="512" xmlns="http://www.w3.org/2000/svg">

 <g>
  <title>background</title>
  <rect fill="none" id="canvas_background" height="402" width="582" y="-1" x="-1"/>
 </g>
 <g>
  <title>Layer 1</title>
  <g id="svg_1">
   <g id="svg_2">
    <path fill="#def0ac" id="svg_3" d="m508.993,394.27c-3.321,-2.491 -8.031,-1.817 -10.521,1.503l-16.752,22.336l-152.451,-304.907l28.233,-28.233c2.935,-2.935 2.935,-7.693 0,-10.627c-2.936,-2.935 -7.693,-2.935 -10.628,0l-26.749,26.748l-26.748,-26.748c-2.936,-2.935 -7.693,-2.935 -10.628,0c-2.935,2.935 -2.935,7.693 0,10.627l19.234,19.234l-95.079,0l15.029,-20.039c2.49,-3.32 1.817,-8.031 -1.503,-10.521c-3.32,-2.489 -8.031,-1.817 -10.521,1.503l-18.849,25.131l-25.936,-25.936c-2.935,-2.935 -7.693,-2.935 -10.627,0c-2.935,2.935 -2.935,7.693 0,10.627l28.233,28.233l-152.452,304.907l-16.752,-22.336c-2.49,-3.32 -7.2,-3.993 -10.521,-1.503c-3.319,2.49 -3.993,7.201 -1.503,10.521l24.047,32.063c1.406,1.867 3.689,3.006 6.024,3.006l384.405,0c4.151,0 7.515,-3.365 7.515,-7.515s-3.364,-7.515 -7.515,-7.515l-59.147,0l-101.526,-203.052c-1.856,-3.712 -6.368,-5.217 -10.082,-3.361c-3.712,1.856 -5.217,6.369 -3.361,10.082l98.167,196.331l-140.64,0l0,-281.278l30.184,60.368c1.856,3.713 6.368,5.218 10.082,3.361c3.712,-1.856 5.217,-6.369 3.361,-10.082l-38.982,-77.965l111.447,0l152.798,305.596l-20.237,0c-4.151,0 -7.515,3.365 -7.515,7.515s3.364,7.515 7.515,7.515l32.381,0c2.343,0 4.62,-1.129 6.027,-3.006l24.047,-32.063c2.49,-3.319 1.817,-8.03 -1.504,-10.52zm-324.633,30.559l-68.733,0l68.733,-143.715l0,143.715zm-82.854,-5.309l-19.828,-19.827l74.352,-94.179l-54.524,114.006zm82.854,-174.145l-118.618,150.25c-2.361,2.991 -2.11,7.276 0.584,9.97l19.235,19.234l-41.84,0l140.639,-281.278l0,101.824z"/>
   </g>
  </g>
  <g id="svg_4">
   <g id="svg_5">
    <path fill="#def0ac" id="svg_6" d="m358.908,268.671l-32.063,-64.125c-1.272,-2.546 -3.875,-4.154 -6.721,-4.154l-32.063,0c-5.481,0 -9.179,5.964 -6.721,10.875l32.063,64.125c1.273,2.546 3.875,4.154 6.721,4.154l32.063,0c5.481,0 9.179,-5.964 6.721,-10.875zm-34.138,-4.155l-24.548,-49.096l15.259,0l24.548,49.096l-15.259,0z"/>
   </g>
  </g>
  <g id="svg_7"/>
  <g id="svg_8"/>
  <g id="svg_9"/>
  <g id="svg_10"/>
  <g id="svg_11"/>
  <g id="svg_12"/>
  <g id="svg_13"/>
  <g id="svg_14"/>
  <g id="svg_15"/>
  <g id="svg_16"/>
  <g id="svg_17"/>
  <g id="svg_18"/>
  <g id="svg_19"/>
  <g id="svg_20"/>
  <g id="svg_21"/>
 </g>
</svg>