<svg xmlns="http://www.w3.org/2000/svg" xmlns:xlink="http://www.w3.org/1999/xlink" version="1.1" id="Layer_1" x="0px" y="0px" viewBox="0 0 463 463" style="enable-background:new 0 0 463 463;" xml:space="preserve" width="100%" height="100%" preserveAspectRatio="xMidYMid meet" ><rect id="svgEditorBackground" x="0" y="0" width="463" height="463" style="fill: none; stroke: none;"/>
<g>
	<g>
		<g>
			<path d="M455.5,368h-102.05700000000002c31.821000000000026,-16.062000000000012,58.101999999999975,-39.50999999999999,76.57499999999999,-68.46600000000001c1.5699999999999932,-2.4599999999999795,1.5699999999999932,-5.607000000000028,0,-8.067000000000007c-17.451000000000022,-27.355000000000018,-42.500999999999976,-50.28199999999998,-72.44,-66.30099999999999c-30.769000000000005,-16.462999999999994,-66,-25.164999999999992,-101.882,-25.164999999999992c-50.715,0,-98.743,17.070999999999998,-136.006,48.20599999999999c-19.960000000000008,-16.602000000000004,-43.965,-29.62899999999999,-69.823,-37.846000000000004c-2.206000000000003,-0.6999999999999886,-4.612999999999992,-0.3439999999999941,-6.519999999999996,0.967000000000013c-1.9080000000000013,1.3120000000000118,-3.1030000000000015,3.4310000000000116,-3.238999999999997,5.741000000000014c-0.5730000000000004,9.778999999999996,0.021999999999998465,43.28800000000001,29.598000000000006,78.43200000000002c-25.141999999999996,29.875999999999976,-29.338,58.56099999999998,-29.68,72.5h-32.52599999999999c-4.142,0,-7.5,3.358000000000004,-7.5,7.5c0,4.141999999999996,3.358,7.5,7.5,7.5h60.25l14.549999999999997,19.399999999999977c5.917000000000002,7.889999999999986,15.338000000000008,12.600000000000023,25.200000000000003,12.600000000000023h248c9.862000000000023,0,19.283000000000015,-4.7099999999999795,25.19999999999999,-12.600000000000023l14.550000000000011,-19.399999999999977h60.25c4.141999999999996,0,7.5,-3.358000000000004,7.5,-7.5c0,-4.143000000000029,-3.358000000000004,-7.501000000000033,-7.5,-7.501000000000033ZM414.714,295.497c-15.829000000000008,23.254999999999995,-38.03800000000001,42.95400000000001,-63.940999999999974,56.923c-15.204000000000008,-15.204999999999984,-23.577999999999975,-35.420000000000016,-23.577999999999975,-56.92199999999997c0,-21.317000000000007,8.586999999999989,-41.894000000000005,23.624000000000024,-56.93299999999999c26.045999999999935,14.001999999999953,48.04299999999995,33.611999999999966,63.894999999999925,56.93199999999996ZM328,359.5c0,3.012999999999977,-0.8349999999999795,5.944000000000017,-2.386000000000024,8.5h-28.22800000000001c-1.5509999999999877,-2.555999999999983,-2.386000000000024,-5.487000000000023,-2.386000000000024,-8.5c0,-9.098000000000013,7.401999999999987,-16.5,16.5,-16.5c9.09800000000007,0,16.500000000000057,7.4010000000000105,16.500000000000057,16.5ZM336.644,231.706c-15.62299999999999,17.433999999999997,-24.449000000000012,40.23799999999997,-24.449000000000012,63.79299999999998c0,11.514999999999986,2.031000000000006,22.716000000000008,5.911000000000001,33.20300000000003c-2.130999999999972,-0.45699999999999363,-4.339999999999975,-0.7029999999999745,-6.6059999999999945,-0.7029999999999745c-3.752999999999986,0,-7.353000000000009,0.6619999999999777,-10.694000000000017,1.872000000000014c-3.7250000000000227,-10.927999999999997,-5.61099999999999,-22.362000000000023,-5.61099999999999,-34.05799999999999c0,-25.951000000000022,9.372000000000014,-50.605999999999995,26.475000000000023,-69.92599999999999c5.08099999999996,1.7349999999999568,10.074000000000012,3.682999999999936,14.97399999999999,5.818999999999932ZM55.403,362.844c1.3930000000000007,-13.620999999999981,7.2790000000000035,-37.773000000000025,29.812000000000005,-62.26799999999997c2.6410000000000053,-2.8700000000000045,2.6410000000000053,-7.285000000000025,0,-10.154999999999973c-22.534999999999997,-24.49599999999998,-28.42,-48.64699999999999,-29.813000000000002,-62.26599999999999c22.152,8.364000000000004,42.48700000000001,20.532999999999987,59.297,35.54800000000003c2.8460000000000036,2.541999999999973,7.146000000000001,2.541999999999973,9.992000000000004,0c35.162000000000006,-31.40600000000009,81.686,-48.70300000000009,131.004,-48.70300000000009c17.09699999999998,0,34.021000000000015,2.1299999999999955,50.309000000000026,6.246000000000009c-15.115999999999985,19.161,-23.99000000000001,42.30299999999997,-25.55200000000002,66.75399999999999h-48.952c-0.0519999999999925,0,-0.10300000000000864,0.007000000000005002,-0.15500000000000114,0.007999999999981355c-2.1450000000000102,-8.216999999999985,-6.63900000000001,-16.17500000000001,-13.240000000000009,-22.77600000000001c-13.846000000000004,-13.844999999999999,-33.661,-18.44999999999999,-49.31199999999998,-11.457999999999998c-1.686000000000007,0.7530000000000143,-3.0349999999999966,2.102000000000004,-3.7889999999999873,3.7890000000000157c-4.188999999999993,9.37700000000001,-4.211000000000013,20.25,-0.5800000000000125,30.437999999999988h-52.72999999999999c-4.141999999999996,0,-7.5,3.358000000000004,-7.5,7.5c0,4.141999999999996,3.358000000000004,7.5,7.5,7.5h61.263000000000005c1.093999999999994,1.3340000000000032,2.2609999999999957,2.629000000000019,3.5060000000000002,3.8740000000000236c9.534999999999997,9.536000000000001,21.901999999999987,14.687999999999988,33.791,14.687999999999988c3.782999999999987,0,7.51400000000001,-0.5339999999999918,11.093999999999994,-1.6019999999999754l12.961000000000013,12.958000000000027c-0.9799999999999898,1.0749999999999886,-1.8959999999999866,2.2099999999999795,-2.7539999999999907,3.387999999999977c-6.8440000000000225,-5.338000000000022,-15.282000000000039,-8.307000000000016,-24.055000000000035,-8.307000000000016c-12.474999999999994,0,-24.170999999999992,6.0260000000000105,-31.576999999999998,16.002999999999986c-0.1419999999999959,-0.002999999999985903,-0.28300000000001546,-0.002999999999985903,-0.4230000000000018,-0.002999999999985903c-7.038999999999987,0,-13.544999999999987,2.3210000000000264,-18.795000000000016,6.2379999999999995c-11.532999999999987,-6.557999999999993,-22.288999999999987,-14.254999999999995,-32.01400000000001,-22.940999999999974c-2.844999999999999,-2.541999999999973,-7.147000000000006,-2.541999999999973,-9.992000000000004,0c-16.809999999999974,15.014999999999986,-37.14399999999996,27.182999999999993,-59.29599999999997,35.54699999999997ZM281.174,368h-40.625c-1.0120000000000005,-2.7110000000000127,-1.5490000000000066,-5.588999999999999,-1.5490000000000066,-8.5c0,-13.509000000000015,10.991000000000014,-24.5,24.50000000000003,-24.5c7.886000000000024,0,15.307000000000016,3.894999999999982,19.901999999999987,10.288999999999987c-2.170000000000016,4.273000000000025,-3.401999999999987,9.09899999999999,-3.401999999999987,14.211000000000013c0,2.8980000000000246,0.40100000000001046,5.7549999999999955,1.1739999999999782,8.5ZM263.5,320c-6.095000000000027,0,-11.870000000000005,1.38900000000001,-17.03,3.865000000000009l-14.939999999999998,-14.937000000000012c0.5089999999999861,-1.940999999999974,0.8600000000000136,-3.9220000000000255,1.0589999999999975,-5.927999999999997h47.82400000000001c0.45299999999997453,7.730000000000018,1.634999999999991,15.343000000000018,3.5400000000000205,22.783000000000015c-6.0890000000000555,-3.705000000000041,-13.143000000000029,-5.7830000000000155,-20.45300000000003,-5.7830000000000155ZM199.488,298.102l8.306000000000012,8.303999999999974c-7.25,-0.6800000000000068,-14.805000000000007,-4.221000000000004,-20.722999999999985,-10.139999999999986c-8.47999999999999,-8.480000000000018,-12.096000000000004,-20.322000000000003,-9.379999999999995,-29.807999999999993c9.488,-2.714999999999975,21.329000000000008,0.8999999999999773,29.808999999999997,9.379000000000019c5.443999999999988,5.444999999999993,8.870000000000005,12.274000000000001,9.915999999999997,18.976999999999975l-7.3230000000000075,-7.319000000000017c-2.929000000000002,-2.9289999999999736,-7.677999999999997,-2.9289999999999736,-10.605999999999995,0.0009999999999763531c-2.9290000000000305,2.928000000000054,-2.9280000000000257,7.678000000000054,0.0009999999999763531,10.606000000000051ZM224.95,368h-64.12799999999999c2.73599999999999,-5.334000000000003,8.28200000000001,-9,14.677999999999997,-9c0.8009999999999877,0,1.6939999999999884,0.09500000000002728,2.8959999999999866,0.3090000000000259c3.13900000000001,0.5579999999999927,6.288000000000011,-0.9309999999999832,7.850999999999999,-3.7099999999999795c4.366000000000014,-7.773000000000025,12.51000000000002,-12.599000000000046,21.253000000000014,-12.599000000000046c6.614000000000004,0,12.936000000000007,2.7450000000000045,17.531000000000006,7.565999999999974c-0.6670000000000016,2.8729999999999905,-1.031000000000006,5.86099999999999,-1.031000000000006,8.934000000000026c0,2.867999999999995,0.3329999999999984,5.716000000000008,0.9499999999999886,8.5ZM80.941,367.998c14.006,-7.016999999999996,27.073000000000008,-15.493999999999971,38.75,-25.206000000000017c8.50800000000001,7.100999999999999,17.676999999999992,13.517999999999972,27.363,19.187999999999988c-0.9099999999999966,1.9080000000000155,-1.6299999999999955,3.923000000000002,-2.1440000000000055,6.017999999999972h-63.968999999999994ZM368.7,393.399c-3.1000000000000227,4.132999999999981,-8.033999999999992,6.600000000000023,-13.199999999999989,6.600000000000023h-248c-5.165999999999997,0,-10.100999999999999,-2.4669999999999845,-13.200000000000003,-6.600000000000023l-7.799999999999997,-10.399000000000001h290l-7.800000000000011,10.399000000000001Z" style="marker-end: url(&quot;#arrow15-12-right&quot;); stroke-width: 9.02px;" stroke="#1C6D29" fill="#DEF0AC"/>
			<path d="M363.695,295c6.341000000000008,0,11.5,-5.158999999999992,11.5,-11.5s-5.158999999999992,-11.5,-11.5,-11.5s-11.5,5.158999999999992,-11.5,11.5s5.158999999999992,11.5,11.5,11.5Z" stroke="#1C6D29" style="stroke-width: 9px;" fill="#DEF0AC"/>
			<path d="M208,135.534c0,12.625,5.348000000000013,19.305000000000007,9.646000000000015,24.671999999999997c3.688999999999993,4.608000000000004,6.354000000000013,7.937000000000012,6.354000000000013,15.296999999999997c0,4.141999999999996,3.358000000000004,7.5,7.5,7.5c4.141999999999996,0,7.5,-3.358000000000004,7.5,-7.5c0,-12.625,-5.348000000000013,-19.304000000000002,-9.64500000000001,-24.671999999999997c-3.688999999999993,-4.608000000000004,-6.35499999999999,-7.937999999999988,-6.35499999999999,-15.296999999999997c0,-7.3700000000000045,2.6670000000000016,-10.704000000000008,6.356999999999999,-15.317000000000007c4.295999999999992,-5.370999999999995,9.643,-12.055000000000007,9.643,-24.686999999999998c0,-12.637,-5.346000000000004,-19.325000000000003,-9.641999999999996,-24.698999999999998c-3.691000000000031,-4.61699999999999,-6.3580000000000325,-7.951999999999991,-6.3580000000000325,-15.330999999999989c0,-4.142000000000003,-3.358000000000004,-7.5,-7.5,-7.5c-4.141999999999996,0,-7.5,3.357999999999997,-7.5,7.5c0,12.637,5.346000000000004,19.325000000000003,9.641999999999996,24.698999999999998c3.6910000000000025,4.617999999999995,6.358000000000004,7.9539999999999935,6.358000000000004,15.332999999999998c0,7.3700000000000045,-2.6670000000000016,10.703999999999994,-6.356999999999999,15.316999999999993c-4.295999999999992,5.3700000000000045,-9.643,12.055000000000007,-9.643,24.685000000000002Z" style="stroke-width: 9.03px;" stroke="#1C6D29" fill="#DEF0AC"/>
			<path d="M248.484,143.026c2.3810000000000002,0,4.503999999999991,-1.11099999999999,5.878999999999991,-2.842000000000013c5.413000000000011,-6.764999999999986,16.637,-20.822000000000003,16.637,-44.65299999999999c0,-9.680000000000007,-1.86099999999999,-18.805000000000007,-5.531999999999982,-27.123000000000005c-1.6720000000000255,-3.7900000000000063,-6.100000000000023,-5.506,-9.889999999999986,-3.8329999999999984c-3.789999999999992,1.671999999999997,-5.5049999999999955,6.099999999999994,-3.8329999999999984,9.89c2.822999999999979,6.396999999999991,4.254999999999967,13.485,4.254999999999967,21.066000000000003c0,18.513999999999996,-8.294999999999987,28.964,-13.302999999999997,35.226c-1.0699999999999932,1.2959999999999923,-1.7129999999999939,2.9579999999999984,-1.7129999999999939,4.770999999999987c0,4.1410000000000196,3.358000000000004,7.498000000000019,7.5,7.498000000000019Z" stroke="#1C6D29" style="stroke-width: 9px;" fill="#DEF0AC"/>
			<path d="M188.325,166.951c1.0039999999999907,0,2.0250000000000057,-0.20300000000000296,3.0039999999999907,-0.632000000000005c3.794000000000011,-1.6610000000000014,5.522999999999996,-6.084000000000003,3.8619999999999948,-9.878000000000014c-2.781000000000006,-6.352000000000004,-4.1910000000000025,-13.385999999999996,-4.1910000000000025,-20.90700000000001c0,-18.590000000000003,8.367999999999995,-29.051000000000002,13.369,-35.304c0.1349999999999909,-0.16899999999999693,0.26300000000000523,-0.3439999999999941,0.3830000000000098,-0.5240000000000009c1.6800000000000068,-2.5190000000000055,1.671999999999997,-5.852000000000004,-0.008000000000009777,-8.370999999999995c-2.296999999999997,-3.4470000000000027,-6.954000000000008,-4.376999999999995,-10.400000000000006,-2.0799999999999983c-0.8880000000000052,0.5919999999999987,-1.608000000000004,1.3400000000000034,-2.1500000000000057,2.1839999999999975c-5.557999999999964,6.965000000000032,-16.19399999999996,20.90200000000003,-16.19399999999996,44.09500000000003c0,9.603999999999985,1.8340000000000032,18.66300000000001,5.450999999999993,26.924000000000007c1.233000000000004,2.8149999999999977,3.9860000000000184,4.492999999999995,6.873999999999995,4.492999999999995Z" fill="#DEF0AC" style="marker-end: url(&quot;#arrow15-12-right&quot;); stroke-width: 9px;" stroke="#1C6D29"/>
		</g>
	</g>
</g>
<g>
</g>
<g>
</g>
<g>
</g>
<g>
</g>
<g>
</g>
<g>
</g>
<g>
</g>
<g>
</g>
<g>
</g>
<g>
</g>
<g>
</g>
<g>
</g>
<g>
</g>
<g>
</g>
<g>
</g>
</svg>